<svg width="1440" height="488" viewBox="0 0 1440 488" fill="none" xmlns="http://www.w3.org/2000/svg">
<g clip-path="url(#clip0_2224_56625)">
<g opacity="0.15">
<rect x="16" y="15" width="1" height="457" fill="white"/>
<rect x="41.125" y="15" width="1" height="457" fill="white"/>
<rect x="66.25" y="15" width="1" height="457" fill="white"/>
<rect x="91.375" y="15" width="1" height="457" fill="white"/>
<rect x="116.5" y="15" width="1" height="457" fill="white"/>
<rect x="141.625" y="15" width="1" height="457" fill="white"/>
<rect x="166.75" y="15" width="1" height="457" fill="white"/>
<rect x="191.875" y="15" width="1" height="457" fill="white"/>
<rect x="217" y="15" width="1" height="457" fill="white"/>
<rect x="242.125" y="15" width="1" height="457" fill="white"/>
<rect x="267.25" y="15" width="1" height="457" fill="white"/>
<rect x="292.375" y="15" width="1" height="457" fill="white"/>
<rect x="317.5" y="15" width="1" height="457" fill="white"/>
<rect x="342.625" y="15" width="1" height="457" fill="white"/>
<rect x="367.75" y="15" width="1" height="457" fill="white"/>
<rect x="392.875" y="15" width="1" height="457" fill="white"/>
<rect x="418" y="15" width="1" height="457" fill="white"/>
<rect x="443.125" y="15" width="1" height="457" fill="white"/>
<rect x="468.25" y="15" width="1" height="457" fill="white"/>
<rect x="493.375" y="15" width="1" height="457" fill="white"/>
<rect x="518.5" y="15" width="1" height="457" fill="white"/>
<rect x="543.625" y="15" width="1" height="457" fill="white"/>
<rect x="568.75" y="15" width="1" height="457" fill="white"/>
<rect x="593.875" y="15" width="1" height="457" fill="white"/>
<rect x="619" y="15" width="1" height="457" fill="white"/>
<rect x="644.125" y="15" width="1" height="457" fill="white"/>
<rect x="669.25" y="15" width="1" height="457" fill="white"/>
<rect x="694.375" y="15" width="1" height="457" fill="white"/>
<rect x="719.5" y="15" width="1" height="457" fill="white"/>
<rect x="744.625" y="15" width="1" height="457" fill="white"/>
<rect x="769.75" y="15" width="1" height="457" fill="white"/>
<rect x="794.875" y="15" width="1" height="457" fill="white"/>
<rect x="820" y="15" width="1" height="457" fill="white"/>
<rect x="845.125" y="15" width="1" height="457" fill="white"/>
<rect x="870.25" y="15" width="1" height="457" fill="white"/>
<rect x="895.375" y="15" width="1" height="457" fill="white"/>
<rect x="920.5" y="15" width="1" height="457" fill="white"/>
<rect x="945.625" y="15" width="1" height="457" fill="white"/>
<rect x="970.75" y="15" width="1" height="457" fill="white"/>
<rect x="995.875" y="15" width="1" height="457" fill="white"/>
<rect x="1021" y="15" width="1" height="457" fill="white"/>
<rect x="1046.12" y="15" width="1" height="457" fill="white"/>
<rect x="1071.25" y="15" width="1" height="457" fill="white"/>
<rect x="1096.38" y="15" width="1" height="457" fill="white"/>
<rect x="1121.5" y="15" width="1" height="457" fill="white"/>
<rect x="1146.62" y="15" width="1" height="457" fill="white"/>
<rect x="1171.75" y="15" width="1" height="457" fill="white"/>
<rect x="1196.88" y="15" width="1" height="457" fill="white"/>
<rect x="1222" y="15" width="1" height="457" fill="white"/>
<rect x="1247.12" y="15" width="1" height="457" fill="white"/>
<rect x="1272.25" y="15" width="1" height="457" fill="white"/>
<rect x="1297.38" y="15" width="1" height="457" fill="white"/>
<rect x="1322.5" y="15" width="1" height="457" fill="white"/>
<rect x="1347.62" y="15" width="1" height="457" fill="white"/>
<rect x="1372.75" y="15" width="1" height="457" fill="white"/>
<rect x="1397.88" y="15" width="1" height="457" fill="white"/>
<rect x="1423" y="15" width="1" height="457" fill="white"/>
</g>
<g opacity="0.15">
<rect y="456" width="1" height="1440" transform="rotate(-90 0 456)" fill="white"/>
<rect y="431.059" width="1" height="1440" transform="rotate(-90 0 431.059)" fill="white"/>
<rect y="406.117" width="1" height="1440" transform="rotate(-90 0 406.117)" fill="white"/>
<rect y="381.177" width="1" height="1440" transform="rotate(-90 0 381.177)" fill="white"/>
<rect y="356.235" width="1" height="1440" transform="rotate(-90 0 356.235)" fill="white"/>
<rect y="331.294" width="1" height="1440" transform="rotate(-90 0 331.294)" fill="white"/>
<rect y="306.353" width="1" height="1440" transform="rotate(-90 0 306.353)" fill="white"/>
<rect y="281.412" width="1" height="1440" transform="rotate(-90 0 281.412)" fill="white"/>
<rect y="256.471" width="1" height="1440" transform="rotate(-90 0 256.471)" fill="white"/>
<rect y="231.529" width="1" height="1440" transform="rotate(-90 0 231.529)" fill="white"/>
<rect y="206.588" width="1" height="1440" transform="rotate(-90 0 206.588)" fill="white"/>
<rect y="181.647" width="1" height="1440" transform="rotate(-90 0 181.647)" fill="white"/>
<rect y="156.706" width="1" height="1440" transform="rotate(-90 0 156.706)" fill="white"/>
<rect y="131.765" width="1" height="1440" transform="rotate(-90 0 131.765)" fill="white"/>
<rect y="106.823" width="1" height="1440" transform="rotate(-90 0 106.823)" fill="white"/>
<rect y="81.8828" width="1" height="1440" transform="rotate(-90 0 81.8828)" fill="white"/>
<rect y="56.9414" width="1" height="1440" transform="rotate(-90 0 56.9414)" fill="white"/>
<rect y="32" width="1" height="1440" transform="rotate(-90 0 32)" fill="white"/>
</g>
<rect width="1440" height="488" fill="url(#paint0_radial_2224_56625)"/>
</g>
<defs>
<radialGradient id="paint0_radial_2224_56625" cx="0" cy="0" r="1" gradientUnits="userSpaceOnUse" gradientTransform="translate(720 244) rotate(90) scale(244 720)">
<stop stop-color="#9B1E14" stop-opacity="0"/>
<stop offset="1" stop-color="#A90000"/>
</radialGradient>
<clipPath id="clip0_2224_56625">
<rect width="1440" height="488" fill="white"/>
</clipPath>
</defs>
</svg>
