<svg width="19" height="20" viewBox="0 0 19 20" fill="none" xmlns="http://www.w3.org/2000/svg">
<g opacity="1" clip-path="url(#clip0_1019_3208)">
<path d="M10.1446 5.42773C8.85965 5.42773 7.84522 6.10402 7.84522 7.18607C7.84522 7.59185 8.04811 7.99762 8.31862 8.2005C7.64234 8.60627 7.43945 9.1473 7.43945 9.6207C7.43945 10.7028 8.31862 11.1085 9.53594 11.5819C10.6856 11.9877 11.0238 12.2582 11.0238 12.8669C11.0238 13.5432 10.4151 13.8813 9.67119 13.8813C9.06254 13.8813 8.52151 13.6784 8.04811 13.4079L7.7776 14.0842C8.251 14.4223 8.92728 14.6252 9.67119 14.6252C10.8209 14.6252 11.9706 14.0842 11.9706 12.7992C11.9706 12.3258 11.7 11.9201 11.4972 11.7172C11.9706 11.3114 12.3087 10.9056 12.3087 10.2294C12.3087 9.1473 11.4295 8.6739 10.3475 8.26813C9.40068 7.86236 8.79202 7.65947 8.79202 7.05082C8.79202 6.50979 9.33305 6.17165 10.077 6.17165C10.077 6.17165 10.077 6.17165 10.1446 6.17165C10.618 6.17165 11.159 6.3069 11.5648 6.57742L11.8353 5.90113C11.2943 5.56299 10.7532 5.42773 10.1446 5.42773ZM10.9561 11.2438C10.6856 11.0409 10.2122 10.9056 9.53594 10.6351C8.58914 10.297 8.25099 9.89122 8.25099 9.48544C8.25099 9.1473 8.45388 8.80916 8.79202 8.53864C9.19779 8.74153 9.80645 9.01204 10.2798 9.1473C11.0914 9.41782 11.3619 9.82359 11.3619 10.297C11.4295 10.6351 11.2943 10.9733 10.9561 11.2438Z" fill="#1C1C1C"/>
<path d="M19.2741 7.52458V5.29284C19.2741 2.52007 16.9748 0.220703 14.202 0.220703H5.07214C2.29937 0.220703 0 2.52007 0 5.29284V14.4903C0 17.2631 2.29937 19.5625 5.07214 19.5625H14.202C16.9748 19.5625 19.2741 17.2631 19.2741 14.4903V12.2586H15.8251V14.4903C15.8251 15.3695 15.0812 16.1134 14.202 16.1134H8.72408L6.62759 17.6689L6.89811 16.1134H5.07214C4.19297 16.1134 3.44905 15.3695 3.44905 14.4903V5.29284C3.44905 4.41367 4.19297 3.66976 5.07214 3.66976H14.202C15.0812 3.66976 15.8251 4.41367 15.8251 5.29284V7.52458H19.2741Z" fill="black"/>
</g>
<defs>
<clipPath id="clip0_1019_3208">
<rect width="19" height="20" fill="white"/>
</clipPath>
</defs>
</svg>
