<svg width="140" height="20" viewBox="0 0 140 20" fill="none" xmlns="http://www.w3.org/2000/svg">
<path d="M33.1041 15.271C32.6082 15.8702 31.9883 16.3455 31.203 16.6761C30.4178 17.0068 29.5912 17.1721 28.682 17.1721C27.9588 17.1721 27.2975 17.0481 26.6982 16.7795C26.099 16.5108 25.5617 16.1389 25.1278 15.6636C24.6938 15.1883 24.3632 14.5891 24.1152 13.9071C23.8879 13.2252 23.7639 12.4606 23.7639 11.6341C23.7639 10.8075 23.9086 9.98094 24.1772 9.27835C24.4458 8.57577 24.8385 7.97651 25.3344 7.48057C25.8303 6.98463 26.4296 6.61267 27.1322 6.34404C27.8348 6.0754 28.5993 5.95142 29.4466 5.95142C29.9838 5.95142 30.4591 5.99274 30.8931 6.0754C31.327 6.15806 31.699 6.28204 32.0296 6.44736C32.3602 6.61267 32.6082 6.79865 32.7735 7.02595C32.9388 7.25326 33.0421 7.50123 33.0421 7.7492C33.0421 8.01784 32.9595 8.22448 32.7735 8.38979C32.5875 8.55511 32.3602 8.6171 32.0296 8.6171C31.7816 8.6171 31.575 8.57577 31.4097 8.47245C31.2444 8.36913 31.0377 8.14182 30.7691 7.79053C30.5004 7.48057 30.2318 7.25326 29.9838 7.12928C29.7359 7.00529 29.4052 6.9433 29.0126 6.9433C28.0414 6.9433 27.3182 7.31525 26.8222 8.05917C26.3263 8.80308 26.0783 9.91894 26.0783 11.3654C26.0783 12.9359 26.3469 14.1138 26.9049 14.9403C27.4835 15.7049 28.2894 16.1182 29.3433 16.1182C29.9218 16.1182 30.4591 16.0149 30.9551 15.7876C31.451 15.5603 31.9676 15.1883 32.4842 14.6924L33.1041 15.271Z" fill="black"/>
<path d="M40.2333 5.93066C41.0185 5.93066 41.7418 6.07531 42.4443 6.34395C43.1469 6.61258 43.7462 7.0052 44.2835 7.50114C44.8001 7.99708 45.2134 8.57568 45.5233 9.2576C45.8333 9.93952 45.9779 10.6628 45.9779 11.4687C45.9779 12.2746 45.8333 13.0598 45.5233 13.7624C45.2134 14.465 44.8001 15.0642 44.2835 15.5602C43.7669 16.0561 43.1469 16.4694 42.4443 16.738C41.7418 17.0273 41.0185 17.172 40.2333 17.172C39.448 17.172 38.7455 17.0273 38.0635 16.7587C37.3816 16.4694 36.7824 16.0975 36.2451 15.5808C35.7285 15.0849 35.3152 14.465 35.0259 13.7624C34.7366 13.0598 34.5713 12.2952 34.5713 11.4687C34.5713 10.6421 34.7159 9.91886 35.0259 9.23694C35.3152 8.55502 35.7285 7.97642 36.2451 7.48048C36.7617 6.98454 37.361 6.61258 38.0635 6.34395C38.7661 6.07531 39.4687 5.93066 40.2333 5.93066ZM40.2333 6.90188C39.7373 6.90188 39.2621 7.0052 38.8488 7.23251C38.4355 7.45982 38.0842 7.76978 37.7949 8.1624C37.5056 8.55502 37.2783 9.05096 37.113 9.60889C36.9477 10.1668 36.8857 10.7868 36.8857 11.4687C36.8857 12.1506 36.9683 12.8118 37.113 13.3904C37.2576 13.969 37.5056 14.4443 37.7949 14.8576C38.0842 15.2502 38.4355 15.5602 38.8488 15.7875C39.2621 16.0148 39.7167 16.1181 40.2333 16.1181C40.7499 16.1181 41.2252 16.0148 41.6384 15.7875C42.0517 15.5602 42.4237 15.2502 42.713 14.8369C43.0229 14.4237 43.2503 13.9277 43.4156 13.3698C43.5809 12.7912 43.6635 12.1713 43.6635 11.4687C43.6635 10.7661 43.5809 10.1668 43.4156 9.60889C43.2503 9.05096 43.0229 8.57568 42.713 8.1624C42.403 7.76978 42.0517 7.43915 41.6384 7.21185C41.2252 7.02587 40.7499 6.90188 40.2333 6.90188Z" fill="black"/>
<path d="M51.2266 13.7623C51.2266 14.3202 51.2473 14.7542 51.268 15.0848C51.2886 15.4154 51.3713 15.6428 51.4746 15.8287C51.5986 15.994 51.7639 16.118 51.9912 16.1594C52.2185 16.2214 52.5285 16.2627 52.9211 16.2833V16.9859H47.5691V16.2833C47.9617 16.2627 48.251 16.2214 48.4783 16.1594C48.7056 16.0974 48.8709 15.994 48.9949 15.8287C49.1189 15.6634 49.2015 15.4361 49.2222 15.1261C49.2635 14.8368 49.2635 14.4236 49.2635 13.907V11.1793C49.2635 9.56748 49.2222 8.57559 49.1396 8.2243C49.0982 8.03833 49.0362 7.89368 48.9949 7.79035C48.9329 7.66637 48.8503 7.58371 48.7263 7.52172C48.6023 7.45973 48.437 7.4184 48.251 7.39773C48.065 7.37707 47.817 7.35641 47.5071 7.35641V6.69515L50.772 5.90991L51.02 7.935H51.1027C51.6193 7.29441 52.2185 6.79847 52.9211 6.44718C53.6237 6.09589 54.3676 5.90991 55.1942 5.90991C55.8141 5.90991 56.3927 6.01323 56.9093 6.21988C57.4259 6.42652 57.8185 6.69515 58.0872 7.06711C58.3145 7.37707 58.4798 7.79035 58.5831 8.2863C58.6864 8.78224 58.7277 9.46416 58.7277 10.3321V13.7416C58.7277 14.2996 58.7484 14.7335 58.7691 15.0642C58.8104 15.3948 58.8724 15.6221 58.9757 15.8081C59.079 15.9734 59.2443 16.0974 59.4717 16.1387C59.699 16.2007 59.9883 16.242 60.3602 16.2627V16.9653H55.0702V16.2627C55.4628 16.242 55.7521 16.2214 55.9794 16.1594C56.2067 16.0974 56.372 15.994 56.496 15.8287C56.62 15.6634 56.682 15.4361 56.7233 15.1261C56.7646 14.8162 56.7646 14.4236 56.7646 13.907V11.1999C56.7646 10.4147 56.7233 9.77412 56.6407 9.23685C56.558 8.69958 56.434 8.26563 56.248 7.95567C56.0621 7.64571 55.8141 7.39773 55.5248 7.25309C55.2355 7.10844 54.8635 7.04644 54.4503 7.04644C53.8303 7.04644 53.2724 7.21176 52.7558 7.52172C52.2392 7.85235 51.8466 8.2863 51.5573 8.84423C51.4953 8.98888 51.4333 9.11286 51.392 9.23685C51.3506 9.36083 51.3093 9.50548 51.2886 9.6708C51.268 9.83611 51.2473 10.0221 51.2266 10.2287C51.206 10.4354 51.206 10.704 51.206 11.0346V13.7623H51.2266Z" fill="black"/>
<path d="M62.5093 16.9654H62.0547V13.4524H62.5713C63.1086 15.3742 64.0591 16.3248 65.4643 16.3248C66.0016 16.3248 66.4355 16.2008 66.7661 15.9321C67.0968 15.6635 67.2414 15.2709 67.2414 14.713C67.2414 14.5063 67.2207 14.341 67.1381 14.1963C67.0761 14.0517 66.9521 13.907 66.7868 13.7417C66.6215 13.5764 66.3735 13.4111 66.0635 13.2045C65.7536 12.9978 65.3403 12.7499 64.8444 12.4192C64.3897 12.1299 63.9765 11.8613 63.6458 11.6133C63.3152 11.3654 63.0259 11.1174 62.7986 10.8694C62.5713 10.6214 62.3853 10.3528 62.282 10.0635C62.1787 9.77421 62.1167 9.44358 62.1167 9.07162C62.1167 8.61701 62.1993 8.18306 62.344 7.79044C62.4886 7.39782 62.7159 7.0672 62.9846 6.79856C63.2532 6.52993 63.5838 6.30262 63.9351 6.15797C64.2864 6.01332 64.6997 5.93066 65.1337 5.93066C65.5056 5.93066 65.8776 5.99266 66.2702 6.09598C66.6628 6.1993 67.0141 6.36461 67.3034 6.55059L67.7167 6.11664H68.1093V9.05096H67.572C67.2621 8.22439 66.9521 7.62513 66.5802 7.27384C66.2289 6.92255 65.7949 6.73657 65.2783 6.73657C64.8237 6.73657 64.4517 6.86055 64.1624 7.10852C63.8731 7.35649 63.7492 7.68712 63.7492 8.12107C63.7492 8.34838 63.7905 8.55502 63.8525 8.72033C63.9351 8.88565 64.0385 9.05096 64.2038 9.21627C64.3691 9.38159 64.5757 9.5469 64.8237 9.71221C65.0717 9.87753 65.3816 10.0842 65.7329 10.2908C66.3115 10.6628 66.8281 10.9934 67.2414 11.2827C67.6547 11.572 67.9853 11.8613 68.2539 12.1299C68.5019 12.4192 68.7086 12.7085 68.8326 12.9978C68.9565 13.2871 69.0185 13.6384 69.0185 14.0104C69.0185 14.9816 68.7086 15.7462 68.0886 16.2834C67.4687 16.8207 66.6421 17.11 65.6089 17.11C64.5757 17.11 63.6252 16.8 62.8813 16.2008L62.5093 16.9654Z" fill="black"/>
<path d="M70.7129 7.41835V6.65377C71.4361 6.24049 71.9941 5.80654 72.4074 5.39325C72.8206 4.97997 73.1306 4.46336 73.3372 3.88477H73.9365V6.46779H76.6642V7.43901H73.9365V13.6383C73.9365 14.1135 73.9572 14.5062 74.0192 14.8368C74.0605 15.1674 74.1431 15.4361 74.2465 15.622C74.3498 15.8287 74.4944 15.9527 74.6804 16.0353C74.8664 16.118 75.073 16.1593 75.3623 16.1593C75.693 16.1593 75.9823 16.0766 76.2302 15.9527C76.4575 15.808 76.7055 15.56 76.9328 15.2294L77.4494 15.622C77.2634 16.118 76.9328 16.5106 76.4575 16.7792C75.9823 17.0479 75.4037 17.1719 74.7011 17.1719C73.7919 17.1719 73.1099 16.9652 72.6553 16.5313C72.18 16.0973 71.9527 15.4774 71.9527 14.6921V7.41835H70.7129Z" fill="black"/>
<path d="M88.1329 15.0643C86.9757 16.4695 85.5292 17.1721 83.8141 17.1721C83.0082 17.1721 82.2849 17.0481 81.6237 16.7795C80.9624 16.5108 80.4045 16.1389 79.9292 15.6636C79.4539 15.1883 79.1027 14.6097 78.834 13.9278C78.5861 13.2459 78.4414 12.502 78.4414 11.6961C78.4414 10.8902 78.5861 10.0843 78.8547 9.38167C79.1233 8.67909 79.5159 8.05917 80.0119 7.56322C80.5078 7.06728 81.1071 6.67466 81.789 6.38536C82.4709 6.09607 83.2355 5.95142 84.0414 5.95142C85.3639 5.95142 86.3765 6.30271 87.0997 7.02595C87.823 7.7492 88.1742 8.76175 88.1742 10.1049C88.1742 10.2909 88.1329 10.4149 88.0709 10.4562C87.9883 10.4975 87.823 10.5182 87.5543 10.5182H80.8385C80.8178 10.6215 80.7971 10.7662 80.7765 10.9108C80.7558 11.0761 80.7558 11.2415 80.7558 11.4274C80.7558 12.13 80.8385 12.7913 81.0038 13.3699C81.1691 13.9485 81.4171 14.4444 81.7477 14.8577C82.0783 15.271 82.4503 15.5809 82.8842 15.8082C83.3182 16.0355 83.8141 16.1389 84.372 16.1389C84.9506 16.1389 85.4672 16.0149 85.9632 15.7669C86.4591 15.5189 86.9551 15.1057 87.4717 14.5271L88.1329 15.0643ZM84.7647 9.54699C85.0333 9.54699 85.2606 9.54699 85.4259 9.52632C85.5912 9.50566 85.7152 9.485 85.7979 9.44367C85.8805 9.40234 85.9425 9.34035 85.9632 9.27835C85.9838 9.1957 86.0045 9.11304 86.0045 8.98905C86.0045 8.36913 85.7979 7.85252 85.4052 7.48057C85.0126 7.10861 84.4547 6.92263 83.7521 6.92263C82.2849 6.92263 81.3757 7.79053 81.0244 9.56765L84.7647 9.54699Z" fill="black"/>
<path d="M93.3195 13.783C93.3195 14.2996 93.3402 14.7129 93.3815 15.0229C93.4228 15.3328 93.5055 15.5808 93.6295 15.7668C93.7535 15.9528 93.9395 16.0561 94.1874 16.1387C94.4354 16.2007 94.7454 16.2421 95.138 16.2627V16.986H89.4967V16.2627C89.9099 16.2421 90.2406 16.2007 90.4885 16.1387C90.7365 16.0768 90.9225 15.9528 91.0671 15.7875C91.2118 15.6221 91.3151 15.3948 91.3564 15.1055C91.3978 14.8162 91.4184 14.4236 91.4184 13.9483V5.10406C91.4184 4.36015 91.4184 3.76089 91.3771 3.26494C91.3564 2.769 91.3358 2.43838 91.2738 2.2524C91.2118 1.94244 91.0465 1.73579 90.7985 1.61181C90.5505 1.50849 90.0959 1.44649 89.4553 1.44649V0.764576L93.3195 0V13.783Z" fill="black"/>
<path d="M99.8082 13.783C99.8082 14.2996 99.8289 14.7129 99.8702 15.0229C99.9115 15.3328 99.9942 15.5808 100.118 15.7668C100.242 15.9528 100.428 16.0561 100.676 16.1387C100.924 16.2007 101.234 16.2421 101.627 16.2627V16.986H95.9853V16.2627C96.3986 16.2421 96.7292 16.2007 96.9772 16.1387C97.2252 16.0768 97.4112 15.9528 97.5558 15.7875C97.7005 15.6221 97.8038 15.3948 97.8451 15.1055C97.8864 14.8162 97.9071 14.4236 97.9071 13.9483V5.10406C97.9071 4.36015 97.9071 3.76089 97.8658 3.26494C97.8451 2.769 97.8244 2.43838 97.7625 2.2524C97.7005 1.94244 97.5351 1.73579 97.2872 1.61181C97.0392 1.50849 96.5846 1.44649 95.9233 1.44649V0.764576L99.8082 0V13.783Z" fill="black"/>
<path d="M109.169 10.0428V9.19561C109.169 7.54247 108.466 6.69524 107.041 6.69524C106.813 6.69524 106.607 6.7159 106.441 6.75723C106.276 6.79856 106.131 6.86055 106.028 6.96387C105.925 7.0672 105.821 7.19118 105.739 7.37716C105.656 7.56314 105.573 7.76978 105.491 8.03841C105.346 8.43103 105.202 8.69967 105.057 8.82365C104.912 8.94764 104.706 9.00963 104.437 9.00963C103.755 9.00963 103.404 8.65834 103.404 7.99708C103.404 7.33583 103.755 6.83989 104.437 6.46793C105.119 6.09598 106.111 5.93066 107.392 5.93066C108.756 5.93066 109.727 6.17863 110.285 6.65391C110.864 7.12919 111.153 7.95576 111.153 9.11295V13.7004C111.153 15.2502 111.463 16.0355 112.083 16.0355C112.269 16.0355 112.455 16.0148 112.641 15.9528C112.827 15.9115 112.971 15.7875 113.095 15.5808L113.385 16.0768C113.219 16.3868 112.93 16.6554 112.496 16.862C112.062 17.0687 111.607 17.172 111.132 17.172C110.533 17.172 110.078 16.986 109.789 16.5934C109.5 16.2008 109.355 15.6842 109.355 14.9816H109.252C108.9 15.6428 108.404 16.1801 107.785 16.5727C107.165 16.9654 106.462 17.1513 105.697 17.1513C104.83 17.1513 104.168 16.924 103.672 16.4901C103.176 16.0561 102.928 15.4775 102.928 14.7336C102.928 14.403 102.99 14.093 103.094 13.7831C103.197 13.4731 103.404 13.2045 103.652 12.9358C103.9 12.6672 104.251 12.3986 104.685 12.1299C105.098 11.8613 105.615 11.5927 106.235 11.324L109.169 10.0428ZM109.169 10.9107C108.384 11.2 107.743 11.51 107.206 11.7786C106.669 12.0473 106.235 12.3572 105.904 12.6259C105.573 12.9152 105.346 13.2045 105.202 13.4731C105.057 13.7624 104.995 14.0517 104.995 14.341C104.995 14.7956 105.14 15.1676 105.449 15.4362C105.759 15.7255 106.152 15.8701 106.627 15.8701C106.979 15.8701 107.309 15.7875 107.619 15.6015C107.929 15.4155 108.198 15.1882 108.425 14.8783C108.652 14.5683 108.838 14.217 108.983 13.8037C109.128 13.3904 109.19 12.9565 109.19 12.4812L109.169 10.9107Z" fill="black"/>
<path d="M114.046 7.41835V6.65377C114.769 6.24049 115.327 5.80654 115.74 5.39325C116.154 4.97997 116.463 4.46336 116.67 3.88477H117.269V6.46779H119.997V7.43901H117.269V13.6383C117.269 14.1135 117.29 14.5062 117.331 14.8368C117.373 15.1674 117.455 15.4361 117.559 15.622C117.662 15.8287 117.807 15.9527 117.993 16.0353C118.179 16.118 118.385 16.1593 118.675 16.1593C119.026 16.1593 119.294 16.0766 119.542 15.9527C119.79 15.808 120.018 15.56 120.245 15.2294L120.762 15.622C120.576 16.118 120.245 16.5106 119.77 16.7792C119.294 17.0479 118.716 17.1719 118.013 17.1719C117.125 17.1719 116.422 16.9652 115.968 16.5313C115.492 16.0973 115.265 15.4774 115.265 14.6921V7.41835H114.046Z" fill="black"/>
<path d="M125.452 13.721C125.452 14.2583 125.473 14.6716 125.514 15.0022C125.556 15.3328 125.659 15.5808 125.783 15.7668C125.928 15.9528 126.114 16.0767 126.362 16.1387C126.61 16.2007 126.94 16.2421 127.353 16.2627V16.986H121.505V16.2627C121.919 16.2421 122.249 16.2007 122.497 16.1387C122.745 16.0561 122.952 15.9528 123.097 15.7668C123.241 15.6015 123.345 15.3535 123.386 15.0435C123.427 14.7336 123.448 14.341 123.448 13.8657V11.2413C123.448 10.4561 123.448 9.79483 123.407 9.29889C123.386 8.78228 123.345 8.43099 123.303 8.24502C123.241 7.93505 123.076 7.70775 122.828 7.60442C122.58 7.48044 122.125 7.43911 121.443 7.43911V6.71586L125.452 5.93062V13.721ZM123.117 1.77712C123.117 1.42583 123.241 1.11586 123.489 0.888557C123.737 0.661251 124.027 0.516602 124.378 0.516602C124.729 0.516602 125.039 0.640587 125.266 0.888557C125.494 1.13653 125.638 1.42583 125.638 1.77712C125.638 2.12841 125.514 2.43837 125.266 2.66568C125.018 2.91365 124.729 3.03763 124.378 3.03763C124.027 3.03763 123.717 2.91365 123.489 2.66568C123.241 2.43837 123.117 2.12841 123.117 1.77712Z" fill="black"/>
<path d="M134.276 5.93066C135.061 5.93066 135.784 6.07531 136.487 6.34395C137.19 6.61258 137.789 7.0052 138.306 7.50114C138.822 7.99708 139.235 8.57568 139.545 9.2576C139.855 9.93952 140 10.6628 140 11.4687C140 12.2746 139.855 13.0598 139.545 13.7624C139.235 14.465 138.822 15.0642 138.306 15.5602C137.789 16.0561 137.169 16.4694 136.487 16.738C135.805 17.0067 135.061 17.172 134.276 17.172C133.491 17.172 132.788 17.0273 132.106 16.7587C131.424 16.4694 130.825 16.0975 130.288 15.5808C129.771 15.0849 129.358 14.465 129.069 13.7624C128.759 13.0598 128.614 12.2952 128.614 11.4687C128.614 10.6421 128.759 9.91886 129.069 9.23694C129.379 8.55502 129.771 7.97642 130.288 7.48048C130.804 6.98454 131.404 6.61258 132.106 6.34395C132.809 6.07531 133.511 5.93066 134.276 5.93066ZM134.276 6.90188C133.78 6.90188 133.305 7.0052 132.891 7.23251C132.478 7.45982 132.127 7.76978 131.838 8.1624C131.548 8.55502 131.321 9.05096 131.156 9.60889C130.99 10.1668 130.928 10.7868 130.928 11.4687C130.928 12.1506 131.011 12.8118 131.156 13.3904C131.3 13.969 131.528 14.4443 131.838 14.8576C132.127 15.2502 132.478 15.5602 132.891 15.7875C133.305 16.0148 133.759 16.1181 134.276 16.1181C134.793 16.1181 135.268 16.0148 135.681 15.7875C136.094 15.5602 136.466 15.2502 136.756 14.8369C137.045 14.4237 137.293 13.9277 137.458 13.3698C137.624 12.8118 137.706 12.1713 137.706 11.4687C137.706 10.7661 137.624 10.1668 137.458 9.60889C137.293 9.05096 137.066 8.57568 136.756 8.1624C136.446 7.74911 136.094 7.43915 135.681 7.21185C135.268 7.02587 134.793 6.90188 134.276 6.90188Z" fill="black"/>
<path d="M18.2465 6.52978V8.63753C18.2258 8.63753 18.2258 8.63753 18.2052 8.63753C17.1306 8.63753 16.0768 8.63753 15.0022 8.63753C14.9402 8.63753 14.9402 8.5962 14.9402 8.55487C14.9402 8.12092 14.9402 7.66631 14.9402 7.23236C14.9402 6.98439 14.9609 6.71576 14.9402 6.46779C14.8782 5.66188 14.2376 5.04196 13.4317 5.04196C10.5594 5.04196 7.66642 5.04196 4.7941 5.04196C4.69077 5.04196 4.56679 5.06262 4.46347 5.08328C3.74022 5.2486 3.28561 5.84786 3.28561 6.59177C3.28561 9.4021 3.28561 12.2124 3.28561 15.0434C3.28561 15.1261 3.28561 15.2087 3.28561 15.2707C3.32694 16.056 3.98819 16.6966 4.77343 16.6966C5.33137 16.6966 5.86863 16.6966 6.42657 16.6966C6.48856 16.6966 6.50922 16.6966 6.48856 16.7586C6.42657 17.1305 6.34391 17.4818 6.28192 17.8538C6.26125 17.9571 6.24059 18.0397 6.21993 18.1637C6.24059 18.1431 6.26125 18.1431 6.28192 18.1224C6.90184 17.6678 7.54244 17.1925 8.16236 16.7379C8.20369 16.6966 8.26568 16.6966 8.32767 16.6966C10.0221 16.6966 11.7373 16.6966 13.4317 16.6966C13.5351 16.6966 13.6177 16.6966 13.721 16.6759C14.4443 16.5106 14.9402 15.9113 14.9402 15.1674C14.9402 14.5268 14.9402 13.8656 14.9402 13.2043C14.9402 13.1423 14.9816 13.101 15.0435 13.101C15.8701 13.101 16.6967 13.101 17.5232 13.101C17.7506 13.101 17.9985 13.101 18.2258 13.101V15.4774C18.2052 15.498 18.2052 15.5187 18.2052 15.5394C18.1845 15.7254 18.1638 15.9113 18.1225 16.0766C17.9365 17.0685 17.4819 17.9158 16.7587 18.6183C15.8494 19.5069 14.7542 19.9822 13.4731 19.9822C10.5594 20.0028 7.62509 19.9822 4.71144 19.9822C4.38081 19.9822 4.07085 19.9408 3.76089 19.8789C2.81033 19.6722 2.00443 19.2176 1.32251 18.515C0.475277 17.6058 0 16.5106 0 15.2501C0 12.3158 0 9.38144 0 6.44712C0 6.21982 0.0206642 5.99251 0.0619926 5.78587C0.24797 4.69067 0.743911 3.76078 1.54982 3.01686C2.45904 2.16963 3.55424 1.75635 4.7941 1.75635C7.68708 1.75635 10.5594 1.75635 13.4524 1.75635C13.7417 1.75635 14.031 1.77701 14.3203 1.839C15.4568 2.06631 16.4074 2.62424 17.1306 3.51281C17.7092 4.21539 18.0605 5.04196 18.1845 5.95118C18.2258 6.13716 18.2258 6.32314 18.2465 6.52978Z" fill="#A71916"/>
<path d="M10.9108 7.66641C10.7042 7.54242 10.4975 7.45977 10.2909 7.39778C9.85692 7.27379 9.40231 7.23246 8.9477 7.39778C8.76172 7.45977 8.59641 7.56309 8.47242 7.7284C8.24512 8.03837 8.28644 8.47231 8.59641 8.72028C8.82371 8.90626 9.09235 9.00958 9.36098 9.1129C9.7536 9.25755 10.1669 9.36087 10.5388 9.54685C10.8695 9.71217 11.1794 9.89814 11.4067 10.2288C11.7787 10.766 11.7374 11.5513 11.3241 12.0886C11.2208 12.2125 11.0968 12.3365 10.9728 12.4398C10.9315 12.4812 10.9315 12.4812 10.9728 12.5225C11.2621 12.8118 11.3861 13.1838 11.3654 13.597C11.3241 14.3616 10.8695 14.8162 10.1669 15.0642C9.77427 15.2088 9.34032 15.2502 8.92703 15.2295C8.53441 15.2088 8.14179 15.1469 7.76984 14.9815C7.62519 14.9195 7.5012 14.8576 7.37722 14.7749C7.33589 14.7542 7.33589 14.7336 7.35655 14.6922C7.43921 14.5063 7.52187 14.3203 7.58386 14.1343C7.60452 14.093 7.62519 14.093 7.66652 14.1136C8.12113 14.4029 8.63773 14.5683 9.19567 14.5476C9.48497 14.5476 9.77427 14.4856 10.0429 14.3203C10.5595 14.0103 10.5802 13.2664 10.1462 12.9151C9.93958 12.7498 9.71227 12.6465 9.48497 12.5432C9.11301 12.3985 8.74106 12.2745 8.3691 12.1299C8.0798 12.0059 7.81117 11.8612 7.5632 11.6753C6.92261 11.1793 6.86061 10.3114 7.31523 9.71217C7.39788 9.60885 7.48054 9.52619 7.5632 9.44353C7.64585 9.36087 7.74917 9.27822 7.8525 9.21623C7.70785 9.07158 7.60453 8.92693 7.52187 8.74095C7.2739 8.07969 7.5012 7.41844 8.10047 7.00516C8.43109 6.77785 8.78238 6.67453 9.175 6.6332C9.79493 6.57121 10.3735 6.6332 10.9521 6.88117C11.1588 6.96383 11.1588 6.98449 11.0761 7.19113C11.0141 7.35645 10.9728 7.5011 10.9108 7.66641ZM10.8075 11.2826C10.8075 10.952 10.7042 10.7247 10.4975 10.5387C10.2909 10.3528 10.0636 10.2494 9.79493 10.1461C9.36098 9.9808 8.9477 9.83615 8.53441 9.65017C8.47242 9.60885 8.41043 9.54685 8.34844 9.56752C8.28644 9.58818 8.22445 9.65017 8.16246 9.71217C7.91449 9.96014 7.76984 10.2494 7.83183 10.6007C7.87316 10.8487 8.03847 11.014 8.22445 11.138C8.53441 11.3653 8.86504 11.4893 9.21633 11.6133C9.58829 11.7579 9.98091 11.8819 10.3115 12.0886C10.3529 12.1092 10.3735 12.0886 10.3942 12.0679C10.6628 11.8612 10.7868 11.5719 10.8075 11.2826Z" fill="#2A2A28"/>
</svg>
