<svg width="20" height="20" viewBox="0 0 20 20" fill="none" xmlns="http://www.w3.org/2000/svg">
<path d="M18.9899 5.83133V7.91864C18.976 7.91864 18.976 7.91864 18.9621 7.91864C17.9045 7.91864 16.8469 7.91864 15.7894 7.91864C15.7198 7.91864 15.7337 7.8908 15.7337 7.84906C15.7337 7.40377 15.7337 6.97239 15.7337 6.5271C15.7337 6.27662 15.7476 6.01223 15.7198 5.76175C15.6641 4.95466 15.0101 4.34238 14.2308 4.34238C11.3782 4.34238 8.52553 4.34238 5.65896 4.34238C5.54764 4.34238 5.45023 4.3563 5.33891 4.38413C4.62923 4.55111 4.17002 5.14947 4.17002 5.88699C4.17002 8.67007 4.17002 11.4671 4.17002 14.2501C4.17002 14.3336 4.17002 14.4032 4.17002 14.4867C4.19785 15.266 4.86579 15.9061 5.64505 15.9061C6.18775 15.9061 6.73045 15.9061 7.28706 15.9061C7.34273 15.9061 7.37056 15.92 7.35664 15.9756C7.28706 16.3374 7.21749 16.6992 7.14791 17.061C7.13399 17.1585 7.12008 17.2559 7.09225 17.3672C7.12008 17.3533 7.13399 17.3393 7.14791 17.3254C7.7741 16.8662 8.38638 16.407 9.01257 15.9478C9.05432 15.92 9.10998 15.8922 9.16564 15.8922C10.8494 15.8922 12.5471 15.8922 14.2308 15.8922C14.3282 15.8922 14.4257 15.8782 14.5231 15.8643C15.2467 15.7113 15.7337 15.1129 15.7337 14.3615C15.7337 13.7214 15.7337 13.0673 15.7337 12.4272C15.7337 12.3576 15.7754 12.3159 15.845 12.3159C16.666 12.3159 17.487 12.3159 18.2941 12.3159C18.5307 12.3159 18.7673 12.3159 18.9899 12.3159V14.6676C18.9621 14.6815 18.976 14.7093 18.976 14.7233C18.9621 14.9042 18.9342 15.0851 18.9064 15.266C18.7116 16.254 18.2663 17.0889 17.5427 17.7846C16.6382 18.6613 15.5528 19.1205 14.2865 19.1344C11.3921 19.1483 8.4977 19.1344 5.58939 19.1344C5.26933 19.1344 4.94928 19.0927 4.64314 19.0231C3.71081 18.8144 2.90372 18.3691 2.23578 17.6733C1.37303 16.7688 0.913818 15.6834 0.899902 14.431C0.913818 11.5645 0.913818 8.65615 0.913818 5.74784C0.913818 5.52519 0.927733 5.30254 0.969479 5.09381C1.15038 4.00841 1.63742 3.09 2.44451 2.35248C3.34901 1.51756 4.43441 1.1001 5.65896 1.1001C8.51162 1.1001 11.3782 1.1001 14.2308 1.1001C14.5231 1.1001 14.8153 1.12793 15.0936 1.18359C16.2207 1.40624 17.1531 1.96285 17.8767 2.83952C18.4611 3.53529 18.809 4.34238 18.9203 5.24688C18.976 5.42778 18.976 5.63651 18.9899 5.83133Z" fill="#A71916"/>
<path d="M11.7262 6.95849C11.5313 6.84716 11.3226 6.74976 11.1 6.69409C10.6547 6.58277 10.2233 6.54103 9.77801 6.68018C9.58319 6.74976 9.41621 6.84716 9.30488 7.01415C9.06832 7.32029 9.12398 7.75166 9.43012 8.00214C9.65277 8.19696 9.91716 8.29436 10.1955 8.39177C10.5851 8.53093 10.9886 8.64225 11.3644 8.82315C11.6983 8.99013 12.0045 9.18495 12.2271 9.49109C12.5889 10.0199 12.5472 10.7991 12.1297 11.3279C12.0323 11.4532 11.9071 11.5784 11.7818 11.6758C11.7401 11.7036 11.7401 11.7315 11.7818 11.7593C12.0601 12.0515 12.1854 12.4133 12.1575 12.8169C12.1158 13.5822 11.6566 14.0275 10.9747 14.278C10.5851 14.4171 10.1676 14.4589 9.75018 14.431C9.36055 14.4032 8.97091 14.3476 8.60911 14.1945C8.46996 14.1388 8.34472 14.0692 8.21948 13.9858C8.17774 13.9579 8.17774 13.944 8.19165 13.9023C8.27514 13.7214 8.35864 13.5265 8.42821 13.3456C8.45604 13.29 8.46996 13.3039 8.49779 13.3317C8.957 13.624 9.45795 13.777 10.0007 13.7631C10.2929 13.7631 10.5712 13.7074 10.8356 13.5405C11.3504 13.2343 11.3644 12.4968 10.933 12.1628C10.7382 12.0098 10.5016 11.8984 10.279 11.801C9.91716 11.648 9.54145 11.5506 9.17965 11.3836C8.90134 11.2583 8.62303 11.1192 8.38647 10.9244C7.76028 10.4234 7.70461 9.57458 8.14991 8.97622C8.21948 8.87881 8.30298 8.79532 8.40038 8.71182C8.49779 8.62833 8.58128 8.55876 8.69261 8.48918C8.53954 8.35002 8.44213 8.19696 8.37255 8.01606C8.12208 7.36203 8.34472 6.69409 8.957 6.29055C9.27705 6.08182 9.63885 5.95658 10.0146 5.91483C10.6268 5.84526 11.2113 5.92875 11.7679 6.16531C11.9766 6.26272 11.9766 6.26272 11.8931 6.47145C11.8375 6.65235 11.7818 6.80542 11.7262 6.95849ZM11.6148 10.5347C11.6148 10.2147 11.5035 9.97812 11.3087 9.79722C11.1139 9.61632 10.8634 9.505 10.6268 9.42151C10.2094 9.26844 9.77801 9.11537 9.37446 8.93447C9.30488 8.90664 9.24922 8.83706 9.17965 8.85098C9.11007 8.87881 9.05441 8.93447 8.99874 8.99013C8.74827 9.22669 8.60911 9.51892 8.67869 9.8668C8.72044 10.1034 8.87351 10.2703 9.06832 10.4095C9.37446 10.6321 9.70843 10.7435 10.0563 10.8687C10.432 11.0079 10.8077 11.1331 11.1417 11.3279C11.1835 11.3557 11.1974 11.3279 11.2252 11.314C11.4896 11.1053 11.6009 10.827 11.6148 10.5347Z" fill="#2A2A28"/>
</svg>
