<?xml version="1.0" encoding="UTF-8" standalone="no"?>
<!DOCTYPE svg PUBLIC "-//W3C//DTD SVG 1.1//EN" "http://www.w3.org/Graphics/SVG/1.1/DTD/svg11.dtd">
<svg width="100%" height="100%" viewBox="0 0 950 210" version="1.1" xmlns="http://www.w3.org/2000/svg" xmlns:xlink="http://www.w3.org/1999/xlink" xml:space="preserve" xmlns:serif="http://www.serif.com/" style="fill-rule:evenodd;clip-rule:evenodd;stroke-linejoin:round;stroke-miterlimit:2;">
    <g transform="matrix(1,0,0,1,-37.0707,-227.698)">
        <g transform="matrix(1.15867,0,0,1.15867,-97.992,8.22046)">
            <g transform="matrix(1.20989,0,0,1.20989,16.9027,95.038)">
                <path d="M242.62,151.9C240.25,154.8 237.18,157.06 233.42,158.68C229.66,160.3 225.61,161.1 221.25,161.1C217.75,161.1 214.54,160.46 211.61,159.17C208.67,157.88 206.15,156.07 204.04,153.73C201.93,151.39 200.3,148.57 199.14,145.27C197.99,141.97 197.41,138.31 197.41,134.29C197.41,130.27 198.07,126.26 199.39,122.86C200.71,119.46 202.57,116.56 204.98,114.16C207.39,111.75 210.29,109.91 213.68,108.62C217.08,107.33 220.82,106.69 224.91,106.69C227.48,106.69 229.82,106.91 231.93,107.33C234.04,107.76 235.87,108.35 237.42,109.11C238.97,109.87 240.17,110.79 241.03,111.88C241.89,112.97 242.32,114.14 242.32,115.39C242.32,116.71 241.89,117.73 241.03,118.46C240.17,119.19 238.99,119.55 237.47,119.55C236.28,119.55 235.29,119.3 234.5,118.81C233.71,118.32 232.69,117.21 231.43,115.5C230.11,113.98 228.84,112.91 227.62,112.29C226.4,111.66 224.83,111.35 222.92,111.35C218.24,111.35 214.69,113.16 212.29,116.79C209.88,120.42 208.68,125.76 208.68,132.81C208.68,140.39 210.02,146.15 212.69,150.07C215.36,153.99 219.27,155.96 224.41,155.96C227.18,155.96 229.78,155.42 232.22,154.33C234.66,153.24 237.13,151.48 239.64,149.04L242.61,151.91L242.62,151.9Z" style="fill-rule:nonzero;"/>
            </g>
            <g transform="matrix(1.20989,0,0,1.20989,16.9027,95.038)">
                <path d="M277.04,106.7C280.8,106.7 284.36,107.38 287.72,108.73C291.08,110.08 294.03,111.94 296.57,114.32C299.11,116.69 301.12,119.51 302.6,122.78C304.08,126.04 304.83,129.62 304.83,133.51C304.83,137.4 304.09,141.23 302.6,144.59C301.12,147.95 299.1,150.86 296.57,153.29C294.03,155.73 291.08,157.64 287.72,159.03C284.36,160.42 280.8,161.11 277.04,161.11C273.28,161.11 269.83,160.43 266.51,159.08C263.18,157.73 260.26,155.83 257.76,153.39C255.25,150.95 253.27,148.03 251.82,144.64C250.37,141.24 249.64,137.54 249.64,133.51C249.64,129.48 250.36,126.03 251.82,122.73C253.27,119.43 255.25,116.6 257.76,114.22C260.27,111.85 263.18,110 266.51,108.68C269.84,107.36 273.35,106.7 277.04,106.7ZM277.04,111.45C274.6,111.45 272.37,111.98 270.36,113.03C268.35,114.09 266.63,115.59 265.22,117.53C263.8,119.48 262.71,121.82 261.96,124.55C261.2,127.29 260.82,130.3 260.82,133.6C260.82,136.9 261.2,140.13 261.96,142.9C262.72,145.67 263.81,148.03 265.22,149.97C266.64,151.92 268.34,153.42 270.31,154.47C272.29,155.53 274.53,156.05 277.04,156.05C279.55,156.05 281.82,155.52 283.87,154.47C285.91,153.42 287.66,151.9 289.11,149.92C290.56,147.94 291.68,145.57 292.47,142.8C293.26,140.03 293.66,136.96 293.66,133.6C293.66,130.24 293.26,127.3 292.47,124.6C291.68,121.9 290.56,119.57 289.11,117.63C287.66,115.69 285.91,114.17 283.87,113.08C281.83,111.99 279.55,111.45 277.04,111.45Z" style="fill-rule:nonzero;"/>
            </g>
            <g transform="matrix(1.20989,0,0,1.20989,16.9027,95.038)">
                <path d="M330.26,144.58C330.26,147.28 330.32,149.41 330.46,150.96C330.59,152.51 330.94,153.7 331.5,154.52C332.06,155.35 332.88,155.89 333.97,156.15C335.06,156.41 336.56,156.61 338.47,156.74L338.47,160.1L312.55,160.1L312.55,156.74C314.4,156.61 315.86,156.41 316.95,156.15C318.04,155.89 318.88,155.36 319.47,154.57C320.06,153.78 320.44,152.66 320.61,151.21C320.77,149.76 320.86,147.78 320.86,145.27L320.86,132.11C320.86,124.26 320.66,119.48 320.27,117.77C320.07,116.91 319.82,116.2 319.53,115.64C319.23,115.08 318.79,114.65 318.19,114.35C317.59,114.05 316.84,113.86 315.91,113.76C314.99,113.66 313.8,113.61 312.35,113.61L312.35,110.44L328.18,106.68L329.37,116.47L329.77,116.47C332.28,113.37 335.21,110.96 338.57,109.25C341.93,107.54 345.59,106.68 349.55,106.68C352.58,106.68 355.35,107.17 357.86,108.16C360.37,109.15 362.28,110.5 363.6,112.22C364.72,113.74 365.51,115.7 365.97,118.11C366.43,120.52 366.66,123.83 366.66,128.05L366.66,144.57C366.66,147.27 366.74,149.4 366.91,150.95C367.07,152.5 367.42,153.69 367.95,154.51C368.48,155.34 369.29,155.88 370.37,156.14C371.46,156.4 372.89,156.6 374.67,156.73L374.67,160.09L349.05,160.09L349.05,156.73C350.9,156.67 352.36,156.48 353.45,156.19C354.54,155.89 355.36,155.35 355.92,154.56C356.48,153.77 356.84,152.63 357.01,151.15C357.17,149.67 357.26,147.7 357.26,145.26L357.26,132.2C357.26,128.44 357.06,125.28 356.67,122.7C356.28,120.12 355.63,118.05 354.74,116.47C353.85,114.89 352.68,113.75 351.23,113.06C349.78,112.37 348.03,112.02 345.99,112.02C343.02,112.02 340.3,112.8 337.83,114.34C335.36,115.89 333.43,118.02 332.04,120.72C331.71,121.38 331.43,122.01 331.2,122.6C330.97,123.19 330.79,123.89 330.66,124.68C330.53,125.47 330.43,126.38 330.36,127.4C330.29,128.42 330.26,129.72 330.26,131.31L330.26,144.58Z" style="fill-rule:nonzero;"/>
            </g>
            <g transform="matrix(1.20989,0,0,1.20989,16.9027,95.038)">
                <path d="M384.86,160.11L382.68,160.11L382.68,143.1L385.15,143.1C387.72,152.4 392.4,157.05 399.2,157.05C401.84,157.05 403.93,156.41 405.48,155.12C407.03,153.83 407.8,151.87 407.8,149.23C407.8,148.24 407.65,147.4 407.35,146.71C407.05,146.02 406.49,145.29 405.67,144.53C404.84,143.77 403.69,142.9 402.21,141.91C400.73,140.92 398.76,139.67 396.32,138.15C394.08,136.76 392.13,135.48 390.48,134.29C388.83,133.1 387.45,131.9 386.33,130.68C385.21,129.46 384.37,128.16 383.81,126.77C383.25,125.38 382.97,123.77 382.97,121.92C382.97,119.68 383.35,117.62 384.11,115.74C384.87,113.86 385.91,112.26 387.23,110.94C388.55,109.62 390.1,108.58 391.88,107.82C393.66,107.06 395.6,106.68 397.72,106.68C399.5,106.68 401.35,106.96 403.26,107.52C405.17,108.08 406.85,108.82 408.3,109.75L410.28,107.67L412.16,107.67L412.16,121.91L409.59,121.91C408.14,117.89 406.56,115.02 404.84,113.3C403.12,111.59 401.01,110.73 398.51,110.73C396.27,110.73 394.47,111.32 393.12,112.51C391.77,113.7 391.09,115.35 391.09,117.46C391.09,118.58 391.27,119.55 391.63,120.38C391.99,121.21 392.57,122.01 393.36,122.8C394.15,123.59 395.16,124.4 396.38,125.22C397.6,126.05 399.07,126.99 400.78,128.04C403.61,129.82 406.04,131.4 408.05,132.79C410.06,134.17 411.69,135.54 412.95,136.89C414.2,138.24 415.13,139.64 415.72,141.09C416.31,142.54 416.61,144.19 416.61,146.04C416.61,150.72 415.09,154.4 412.06,157.07C409.03,159.74 405.04,161.08 400.09,161.08C395.14,161.08 390.53,159.6 386.84,156.63L384.86,160.09L384.86,160.11Z" style="fill-rule:nonzero;"/>
            </g>
            <g transform="matrix(1.20989,0,0,1.20989,16.9027,95.038)">
                <path d="M424.53,113.92L424.53,110.26C428.02,108.22 430.76,106.17 432.74,104.13C434.72,102.09 436.23,99.65 437.29,96.81L440.16,96.81L440.16,109.27L453.41,109.27L453.41,113.92L440.16,113.92L440.16,143.99C440.16,146.3 440.27,148.24 440.51,149.83C440.74,151.41 441.12,152.68 441.65,153.64C442.18,154.6 442.87,155.27 443.73,155.67C444.59,156.07 445.67,156.26 446.99,156.26C448.64,156.26 450.04,155.91 451.19,155.22C452.34,154.53 453.48,153.36 454.6,151.71L457.07,153.59C456.15,156.03 454.55,157.89 452.27,159.18C450,160.47 447.18,161.11 443.81,161.11C439.46,161.11 436.14,160.07 433.87,157.99C431.59,155.91 430.46,152.93 430.46,149.04L430.46,113.92L424.53,113.92Z" style="fill-rule:nonzero;"/>
            </g>
            <g transform="matrix(1.20989,0,0,1.20989,16.9027,95.038)">
                <path d="M508.9,150.91C503.29,157.7 496.34,161.1 488.03,161.1C484.14,161.1 480.61,160.46 477.45,159.17C474.28,157.88 471.56,156.07 469.29,153.73C467.01,151.39 465.25,148.59 464,145.32C462.75,142.06 462.12,138.45 462.12,134.49C462.12,130.53 462.78,126.74 464.1,123.31C465.42,119.88 467.28,116.95 469.69,114.51C472.1,112.07 474.96,110.16 478.3,108.77C481.63,107.38 485.27,106.69 489.23,106.69C495.63,106.69 500.57,108.42 504.07,111.88C507.56,115.34 509.31,120.3 509.31,126.77C509.31,127.69 509.13,128.25 508.77,128.45C508.41,128.65 507.57,128.75 506.25,128.75L473.71,128.75C473.58,129.28 473.48,129.92 473.41,130.68C473.34,131.44 473.31,132.28 473.31,133.2C473.31,136.63 473.72,139.75 474.55,142.55C475.37,145.35 476.56,147.74 478.11,149.72C479.66,151.7 481.51,153.23 483.65,154.32C485.79,155.41 488.18,155.95 490.82,155.95C493.59,155.95 496.16,155.34 498.54,154.12C500.91,152.9 503.35,150.91 505.86,148.14L508.93,150.91L508.9,150.91ZM492.58,124.2C493.9,124.2 494.95,124.17 495.75,124.1C496.54,124.04 497.13,123.9 497.53,123.7C497.93,123.5 498.19,123.22 498.32,122.86C498.45,122.5 498.52,122.02 498.52,121.43C498.52,118.4 497.55,115.97 495.6,114.16C493.65,112.35 491,111.44 487.64,111.44C480.52,111.44 476.1,115.69 474.39,124.2L492.59,124.2L492.58,124.2Z" style="fill-rule:nonzero;"/>
            </g>
            <g transform="matrix(1.20989,0,0,1.20989,16.9027,95.038)">
                <path d="M533.93,144.68C533.93,147.19 534.03,149.2 534.23,150.71C534.43,152.23 534.84,153.41 535.47,154.27C536.1,155.13 536.99,155.72 538.14,156.05C539.29,156.38 540.83,156.58 542.74,156.64L542.74,160.1L515.44,160.1L515.44,156.64C517.42,156.58 519,156.36 520.19,156C521.38,155.64 522.32,155.06 523.01,154.27C523.7,153.48 524.16,152.38 524.4,150.96C524.63,149.54 524.75,147.68 524.75,145.37L524.75,102.74C524.75,99.18 524.7,96.2 524.6,93.79C524.5,91.38 524.35,89.75 524.15,88.89C523.82,87.37 523.04,86.35 521.83,85.82C520.61,85.29 518.42,85.03 515.25,85.03L515.25,81.67L533.95,78.01L533.95,144.68L533.93,144.68Z" style="fill-rule:nonzero;"/>
            </g>
            <g transform="matrix(1.20989,0,0,1.20989,16.9027,95.038)">
                <path d="M565.38,144.68C565.38,147.19 565.48,149.2 565.68,150.71C565.88,152.23 566.29,153.41 566.92,154.27C567.55,155.13 568.44,155.72 569.59,156.05C570.74,156.38 572.28,156.58 574.19,156.64L574.19,160.1L546.89,160.1L546.89,156.64C548.87,156.58 550.45,156.36 551.64,156C552.83,155.64 553.77,155.06 554.46,154.27C555.15,153.48 555.61,152.38 555.85,150.96C556.08,149.54 556.2,147.68 556.2,145.37L556.2,102.74C556.2,99.18 556.15,96.2 556.05,93.79C555.95,91.38 555.8,89.75 555.6,88.89C555.27,87.37 554.49,86.35 553.28,85.82C552.06,85.29 549.87,85.03 546.7,85.03L546.7,81.67L565.4,78.01L565.4,144.68L565.38,144.68Z" style="fill-rule:nonzero;"/>
            </g>
            <g transform="matrix(1.20989,0,0,1.20989,16.9027,95.038)">
                <path d="M610.69,126.58L610.69,122.52C610.69,114.48 607.26,110.45 600.4,110.45C599.28,110.45 598.32,110.55 597.53,110.75C596.74,110.95 596.08,111.28 595.55,111.74C595.02,112.2 594.54,112.86 594.12,113.72C593.69,114.58 593.28,115.63 592.88,116.89C592.15,118.8 591.45,120.07 590.75,120.7C590.06,121.33 589.05,121.64 587.73,121.64C584.43,121.64 582.78,119.99 582.78,116.69C582.78,113.39 584.46,111.07 587.82,109.32C591.18,107.57 595.96,106.7 602.16,106.7C608.75,106.7 613.44,107.87 616.21,110.21C618.98,112.55 620.36,116.53 620.36,122.13L620.36,144.29C620.36,151.81 621.84,155.57 624.81,155.57C625.73,155.57 626.62,155.46 627.48,155.22C628.34,154.99 629.06,154.38 629.66,153.39L631.05,155.76C630.26,157.28 628.81,158.55 626.7,159.57C624.59,160.59 622.38,161.1 620.07,161.1C617.17,161.1 615.01,160.18 613.59,158.33C612.17,156.48 611.46,153.88 611.46,150.52L610.97,150.52C609.25,153.75 606.88,156.31 603.85,158.19C600.82,160.07 597.45,161.01 593.76,161.01C589.61,161.01 586.34,159.96 583.97,157.84C581.6,155.73 580.41,152.89 580.41,149.33C580.41,147.75 580.69,146.23 581.25,144.78C581.81,143.33 582.72,141.95 583.97,140.63C585.22,139.31 586.87,138.01 588.92,136.72C590.96,135.43 593.47,134.13 596.44,132.81L610.68,126.58L610.69,126.58ZM610.69,130.83C606.93,132.28 603.75,133.7 601.14,135.08C598.53,136.46 596.44,137.85 594.86,139.23C593.28,140.61 592.14,142 591.45,143.38C590.76,144.77 590.41,146.18 590.41,147.63C590.41,149.81 591.14,151.59 592.59,152.97C594.04,154.35 595.95,155.05 598.33,155.05C600.04,155.05 601.64,154.62 603.13,153.76C604.61,152.9 605.92,151.73 607.04,150.25C608.16,148.77 609.05,147.02 609.71,145.01C610.37,143 610.7,140.87 610.7,138.63L610.7,130.82L610.69,130.83Z" style="fill-rule:nonzero;"/>
            </g>
            <g transform="matrix(1.20989,0,0,1.20989,16.9027,95.038)">
                <path d="M634.23,113.92L634.23,110.26C637.72,108.22 640.46,106.17 642.44,104.13C644.42,102.09 645.93,99.65 646.99,96.81L649.86,96.81L649.86,109.27L663.11,109.27L663.11,113.92L649.86,113.92L649.86,143.99C649.86,146.3 649.97,148.24 650.21,149.83C650.44,151.41 650.82,152.68 651.35,153.64C651.88,154.6 652.57,155.27 653.43,155.67C654.29,156.07 655.37,156.26 656.69,156.26C658.34,156.26 659.74,155.91 660.89,155.22C662.04,154.53 663.18,153.36 664.3,151.71L666.77,153.59C665.85,156.03 664.25,157.89 661.97,159.18C659.69,160.47 656.88,161.11 653.51,161.11C649.16,161.11 645.84,160.07 643.57,157.99C641.29,155.91 640.16,152.93 640.16,149.04L640.16,113.92L634.23,113.92Z" style="fill-rule:nonzero;"/>
            </g>
            <g transform="matrix(1.20989,0,0,1.20989,16.9027,95.038)">
                <path d="M689.52,144.38C689.52,146.95 689.63,149.01 689.87,150.56C690.1,152.11 690.55,153.33 691.21,154.22C691.87,155.11 692.79,155.72 693.98,156.05C695.17,156.38 696.75,156.58 698.73,156.64L698.73,160.1L670.34,160.1L670.34,156.64C672.32,156.58 673.93,156.36 675.19,156C676.44,155.64 677.42,155.05 678.11,154.22C678.8,153.4 679.26,152.24 679.49,150.76C679.72,149.28 679.84,147.38 679.84,145.07L679.84,132.41C679.84,128.59 679.79,125.44 679.69,122.96C679.59,120.49 679.41,118.79 679.15,117.87C678.82,116.35 678.06,115.31 676.87,114.75C675.68,114.19 673.44,113.91 670.14,113.91L670.14,110.45L689.53,106.69L689.53,144.38L689.52,144.38ZM678.14,86.61C678.14,84.9 678.73,83.44 679.92,82.26C681.11,81.08 682.56,80.48 684.27,80.48C685.98,80.48 687.44,81.07 688.62,82.26C689.8,83.45 690.4,84.9 690.4,86.61C690.4,88.32 689.81,89.78 688.62,90.96C687.43,92.15 685.98,92.74 684.27,92.74C682.56,92.74 681.1,92.15 679.92,90.96C678.73,89.77 678.14,88.32 678.14,86.61Z" style="fill-rule:nonzero;"/>
            </g>
            <g transform="matrix(1.20989,0,0,1.20989,16.9027,95.038)">
                <path d="M732.15,106.7C735.91,106.7 739.47,107.38 742.83,108.73C746.19,110.08 749.14,111.94 751.68,114.32C754.22,116.69 756.23,119.51 757.71,122.78C759.19,126.04 759.94,129.62 759.94,133.51C759.94,137.4 759.2,141.23 757.71,144.59C756.23,147.95 754.21,150.86 751.68,153.29C749.14,155.73 746.19,157.64 742.83,159.03C739.47,160.42 735.91,161.11 732.15,161.11C728.39,161.11 724.94,160.43 721.62,159.08C718.29,157.73 715.37,155.83 712.87,153.39C710.36,150.95 708.38,148.03 706.94,144.64C705.49,141.24 704.76,137.54 704.76,133.51C704.76,129.48 705.48,126.03 706.94,122.73C708.39,119.43 710.37,116.6 712.87,114.22C715.38,111.85 718.29,110 721.62,108.68C724.95,107.36 728.46,106.7 732.15,106.7ZM732.15,111.45C729.71,111.45 727.48,111.98 725.47,113.03C723.46,114.09 721.74,115.59 720.33,117.53C718.91,119.48 717.82,121.82 717.07,124.55C716.31,127.29 715.93,130.3 715.93,133.6C715.93,136.9 716.31,140.13 717.07,142.9C717.83,145.67 718.92,148.03 720.33,149.97C721.75,151.92 723.45,153.42 725.42,154.47C727.4,155.53 729.64,156.05 732.15,156.05C734.66,156.05 736.93,155.52 738.98,154.47C741.02,153.42 742.77,151.9 744.22,149.92C745.67,147.94 746.79,145.57 747.58,142.8C748.37,140.03 748.77,136.96 748.77,133.6C748.77,130.24 748.37,127.3 747.58,124.6C746.79,121.9 745.67,119.57 744.22,117.63C742.77,115.69 741.02,114.17 738.98,113.08C736.94,111.99 734.66,111.45 732.15,111.45Z" style="fill-rule:nonzero;"/>
            </g>
            <g transform="matrix(1.20989,0,0,1.20989,16.9027,95.038)">
                <path d="M170.67,109.61L170.67,119.78C170.62,119.78 170.57,119.79 170.51,119.79L155.03,119.79C154.72,119.79 154.74,119.64 154.74,119.43L154.74,113.01C154.74,111.76 154.79,110.51 154.7,109.27C154.44,105.35 151.27,102.37 147.43,102.37L105.59,102.37C105.06,102.37 104.54,102.43 104.03,102.55C100.57,103.38 98.3,106.28 98.29,109.87L98.29,150.73C98.29,151.11 98.29,151.49 98.32,151.87C98.48,155.68 101.73,158.79 105.53,158.79L113.53,158.79C113.8,158.79 113.9,158.83 113.84,159.13C113.5,160.89 113.17,162.66 112.85,164.42C112.76,164.9 112.68,165.37 112.59,165.92C112.73,165.82 112.79,165.78 112.85,165.73C115.88,163.5 118.92,161.27 121.94,159.03C122.17,158.86 122.4,158.78 122.69,158.78L147.43,158.78C147.9,158.78 148.37,158.74 148.84,158.64C152.35,157.88 154.73,154.93 154.74,151.33L154.74,141.87C154.74,141.53 154.917,141.36 155.27,141.36L167.25,141.36C168.39,141.36 169.53,141.36 170.68,141.35L170.68,152.86C170.54,152.92 170.61,153.04 170.6,153.13C170.52,154.02 170.42,154.91 170.25,155.78C169.31,160.58 167.12,164.71 163.6,168.11C159.18,172.38 153.87,174.66 147.72,174.68C133.57,174.74 119.43,174.7 105.28,174.7C103.73,174.7 102.19,174.52 100.67,174.18C96.09,173.16 92.15,170.99 88.9,167.59C84.68,163.17 82.42,157.89 82.4,151.77C82.35,137.59 82.39,123.4 82.38,109.22C82.38,108.14 82.47,107.07 82.65,106.01C83.54,100.72 85.93,96.22 89.88,92.6C94.31,88.54 99.58,86.47 105.58,86.46C119.54,86.43 133.5,86.45 147.46,86.46C148.88,86.46 150.29,86.59 151.68,86.86C157.17,87.94 161.73,90.63 165.3,94.94C168.14,98.36 169.83,102.3 170.42,106.71C170.55,107.67 170.56,108.64 170.64,109.61L170.67,109.61Z" style="fill:rgb(167,25,22);fill-rule:nonzero;"/>
            </g>
            <g transform="matrix(1.20989,0,0,1.20989,16.9027,95.038)">
                <path d="M135.16,115.13C134.2,114.56 133.2,114.11 132.13,113.83C129.98,113.28 127.82,113.06 125.66,113.79C124.73,114.1 123.93,114.6 123.33,115.39C122.2,116.87 122.46,118.99 123.93,120.23C125.02,121.16 126.33,121.65 127.65,122.14C129.55,122.84 131.51,123.38 133.35,124.26C134.98,125.05 136.5,126 137.55,127.53C139.33,130.12 139.13,133.92 137.1,136.51C136.6,137.15 136.02,137.73 135.38,138.23C135.16,138.4 135.19,138.47 135.37,138.66C136.74,140.11 137.35,141.85 137.23,143.83C137,147.56 134.8,149.74 131.46,150.96C129.52,151.67 127.5,151.84 125.45,151.72C123.54,151.61 121.68,151.29 119.9,150.56C119.24,150.29 118.62,149.96 118.03,149.56C117.86,149.44 117.82,149.34 117.91,149.15C118.3,148.25 118.69,147.35 119.05,146.44C119.15,146.19 119.24,146.24 119.41,146.35C121.66,147.78 124.11,148.52 126.78,148.48C128.21,148.46 129.58,148.18 130.84,147.43C133.36,145.92 133.41,142.31 131.34,140.68C130.36,139.91 129.26,139.37 128.12,138.9C126.34,138.16 124.48,137.64 122.72,136.87C121.35,136.27 120.02,135.59 118.84,134.65C115.79,132.23 115.48,128.05 117.69,125.12C118.05,124.65 118.44,124.21 118.88,123.81C119.32,123.41 119.79,123.06 120.31,122.71C119.59,122.06 119.09,121.27 118.76,120.38C117.56,117.21 118.65,113.94 121.59,111.96C123.16,110.91 124.92,110.35 126.77,110.16C129.73,109.84 132.61,110.2 135.35,111.4C136.38,111.85 136.38,111.86 135.99,112.91C135.72,113.63 135.45,114.36 135.17,115.11L135.16,115.13ZM134.64,132.63C134.65,131.05 134.12,129.94 133.12,129.04C132.14,128.17 130.98,127.63 129.77,127.18C127.72,126.42 125.65,125.72 123.67,124.78C123.36,124.63 123.06,124.28 122.74,124.38C122.42,124.48 122.15,124.8 121.88,125.05C120.65,126.22 120,127.63 120.31,129.36C120.52,130.54 121.3,131.33 122.22,132C123.68,133.06 125.36,133.66 127.03,134.27C128.85,134.93 130.69,135.55 132.37,136.54C132.55,136.65 132.63,136.55 132.74,136.46C134.02,135.41 134.6,134.03 134.64,132.62L134.64,132.63Z" style="fill:rgb(42,42,40);fill-rule:nonzero;"/>
            </g>
        </g>
        <g transform="matrix(1.23592,0,0,1.23592,-34.0206,-129.355)">
            <g transform="matrix(64,0,0,64,186.416,443.638)">
                <path d="M0.026,-0L0.242,-0.628L0.337,-0.628L0.548,-0L0.466,-0L0.413,-0.161L0.163,-0.161L0.108,-0L0.026,-0ZM0.183,-0.222L0.393,-0.222L0.288,-0.533L0.183,-0.222Z" style="fill:rgb(169,0,0);fill-rule:nonzero;"/>
            </g>
            <g transform="matrix(64,0,0,64,223.184,443.638)">
                <rect x="0.101" y="-0.682" width="0.078" height="0.682" style="fill:rgb(169,0,0);fill-rule:nonzero;"/>
            </g>
            <g transform="matrix(64,0,0,64,241.104,443.638)">
                <path d="M0.318,0.012C0.283,0.012 0.253,0.004 0.227,-0.012C0.201,-0.028 0.181,-0.051 0.167,-0.082C0.153,-0.113 0.146,-0.151 0.146,-0.195L0.179,-0.195C0.179,-0.165 0.185,-0.14 0.198,-0.12C0.21,-0.1 0.226,-0.084 0.246,-0.074C0.266,-0.063 0.287,-0.058 0.309,-0.058C0.333,-0.058 0.356,-0.065 0.378,-0.079C0.4,-0.093 0.418,-0.113 0.432,-0.14C0.446,-0.167 0.453,-0.2 0.453,-0.24C0.453,-0.278 0.447,-0.311 0.434,-0.338C0.421,-0.365 0.404,-0.385 0.382,-0.4C0.36,-0.414 0.336,-0.421 0.31,-0.421C0.287,-0.421 0.266,-0.416 0.246,-0.405C0.226,-0.394 0.21,-0.377 0.198,-0.356C0.185,-0.335 0.179,-0.309 0.179,-0.278L0.146,-0.278C0.146,-0.324 0.154,-0.363 0.169,-0.395C0.184,-0.426 0.205,-0.45 0.232,-0.466C0.258,-0.482 0.287,-0.49 0.32,-0.49C0.357,-0.49 0.392,-0.48 0.425,-0.46C0.457,-0.44 0.483,-0.411 0.503,-0.374C0.523,-0.337 0.533,-0.292 0.533,-0.24C0.533,-0.187 0.523,-0.142 0.503,-0.105C0.483,-0.067 0.456,-0.038 0.424,-0.018C0.391,0.002 0.356,0.012 0.318,0.012ZM0.101,0.235L0.101,-0.478L0.166,-0.478L0.179,-0.366L0.179,0.235L0.101,0.235Z" style="fill:rgb(169,0,0);fill-rule:nonzero;"/>
            </g>
            <g transform="matrix(64,0,0,64,278.512,443.638)">
                <path d="M0.441,-0L0.441,-0.281C0.441,-0.327 0.43,-0.361 0.408,-0.385C0.386,-0.409 0.357,-0.421 0.319,-0.421C0.29,-0.421 0.266,-0.413 0.245,-0.398C0.224,-0.382 0.207,-0.359 0.196,-0.33C0.185,-0.301 0.179,-0.266 0.179,-0.226L0.149,-0.226C0.149,-0.282 0.156,-0.329 0.171,-0.369C0.186,-0.408 0.207,-0.438 0.235,-0.459C0.263,-0.48 0.298,-0.49 0.338,-0.49C0.376,-0.49 0.408,-0.482 0.435,-0.465C0.462,-0.448 0.482,-0.424 0.497,-0.393C0.511,-0.361 0.518,-0.324 0.518,-0.281L0.518,-0L0.441,-0ZM0.101,-0L0.101,-0.682L0.179,-0.682L0.179,-0L0.101,-0Z" style="fill:rgb(169,0,0);fill-rule:nonzero;"/>
            </g>
            <g transform="matrix(64,0,0,64,317.136,443.638)">
                <path d="M0.397,-0L0.387,-0.105L0.387,-0.31C0.387,-0.353 0.378,-0.384 0.36,-0.403C0.341,-0.422 0.314,-0.431 0.277,-0.431C0.256,-0.431 0.238,-0.428 0.221,-0.422C0.204,-0.416 0.191,-0.407 0.181,-0.394C0.171,-0.382 0.166,-0.366 0.166,-0.346L0.079,-0.346C0.079,-0.381 0.088,-0.409 0.105,-0.43C0.122,-0.451 0.145,-0.466 0.175,-0.476C0.205,-0.485 0.239,-0.49 0.277,-0.49C0.314,-0.49 0.346,-0.484 0.375,-0.472C0.403,-0.459 0.425,-0.44 0.441,-0.413C0.457,-0.386 0.465,-0.351 0.465,-0.308L0.465,-0L0.397,-0ZM0.234,0.012C0.195,0.012 0.162,0.005 0.137,-0.009C0.111,-0.023 0.092,-0.041 0.079,-0.064C0.066,-0.086 0.06,-0.109 0.06,-0.134C0.06,-0.166 0.068,-0.193 0.084,-0.213C0.1,-0.233 0.123,-0.248 0.151,-0.258C0.179,-0.267 0.21,-0.272 0.245,-0.272C0.27,-0.272 0.295,-0.27 0.32,-0.265C0.345,-0.26 0.37,-0.253 0.394,-0.244L0.394,-0.195C0.374,-0.203 0.351,-0.209 0.326,-0.214C0.301,-0.219 0.278,-0.221 0.257,-0.221C0.225,-0.221 0.198,-0.214 0.176,-0.201C0.154,-0.188 0.143,-0.166 0.143,-0.134C0.143,-0.111 0.151,-0.091 0.168,-0.074C0.185,-0.057 0.212,-0.049 0.249,-0.049C0.275,-0.049 0.298,-0.055 0.319,-0.067C0.34,-0.079 0.357,-0.095 0.369,-0.113C0.381,-0.131 0.387,-0.15 0.387,-0.168L0.406,-0.168C0.406,-0.136 0.399,-0.106 0.385,-0.079C0.371,-0.052 0.352,-0.03 0.326,-0.013C0.3,0.004 0.27,0.012 0.234,0.012Z" style="fill:rgb(169,0,0);fill-rule:nonzero;"/>
            </g>
            <g transform="matrix(64,0,0,64,367.568,443.638)">
                <path d="M0.276,-0.083L0.462,-0.628L0.545,-0.628L0.321,-0L0.24,-0L0.018,-0.628L0.101,-0.628L0.286,-0.083L0.276,-0.083Z" style="fill:rgb(169,0,0);fill-rule:nonzero;"/>
            </g>
            <g transform="matrix(64,0,0,64,401.52,443.638)">
                <path d="M0.267,0.012C0.226,0.012 0.189,0.001 0.156,-0.02C0.124,-0.041 0.098,-0.07 0.079,-0.108C0.06,-0.146 0.051,-0.189 0.051,-0.238C0.051,-0.29 0.06,-0.335 0.079,-0.373C0.098,-0.411 0.123,-0.44 0.156,-0.46C0.188,-0.48 0.225,-0.49 0.267,-0.49C0.303,-0.49 0.334,-0.483 0.36,-0.468C0.386,-0.453 0.406,-0.434 0.422,-0.409C0.438,-0.384 0.449,-0.355 0.455,-0.324C0.461,-0.292 0.463,-0.26 0.46,-0.226L0.114,-0.226L0.114,-0.274L0.409,-0.274L0.386,-0.259C0.387,-0.279 0.385,-0.298 0.382,-0.318C0.379,-0.338 0.373,-0.356 0.365,-0.372C0.356,-0.389 0.344,-0.402 0.328,-0.412C0.312,-0.422 0.292,-0.427 0.268,-0.427C0.237,-0.427 0.212,-0.419 0.191,-0.404C0.17,-0.388 0.155,-0.367 0.145,-0.342C0.134,-0.316 0.129,-0.289 0.129,-0.259L0.129,-0.227C0.129,-0.194 0.134,-0.164 0.144,-0.138C0.154,-0.111 0.17,-0.09 0.19,-0.075C0.21,-0.06 0.236,-0.052 0.267,-0.052C0.298,-0.052 0.324,-0.059 0.344,-0.075C0.364,-0.09 0.376,-0.112 0.38,-0.141L0.461,-0.141C0.456,-0.109 0.445,-0.082 0.427,-0.059C0.409,-0.036 0.387,-0.019 0.36,-0.007C0.332,0.006 0.301,0.012 0.267,0.012Z" style="fill:rgb(169,0,0);fill-rule:nonzero;"/>
            </g>
            <g transform="matrix(64,0,0,64,434.384,443.638)">
                <path d="M0.101,-0L0.101,-0.479L0.179,-0.479L0.179,-0L0.101,-0ZM0.155,-0.216C0.155,-0.277 0.161,-0.327 0.173,-0.367C0.184,-0.407 0.201,-0.437 0.224,-0.457C0.246,-0.477 0.274,-0.487 0.306,-0.487C0.317,-0.487 0.326,-0.486 0.335,-0.485C0.344,-0.483 0.353,-0.481 0.362,-0.478L0.357,-0.401C0.348,-0.404 0.338,-0.407 0.327,-0.409C0.316,-0.411 0.306,-0.412 0.297,-0.412C0.269,-0.412 0.246,-0.404 0.229,-0.388C0.211,-0.372 0.199,-0.349 0.191,-0.32C0.183,-0.29 0.179,-0.256 0.179,-0.216L0.155,-0.216Z" style="fill:rgb(169,0,0);fill-rule:nonzero;"/>
            </g>
            <g transform="matrix(64,0,0,64,457.52,443.638)">
                <path d="M0.273,0.012C0.227,0.012 0.188,0.005 0.157,-0.008C0.126,-0.021 0.102,-0.039 0.087,-0.062C0.071,-0.085 0.062,-0.112 0.061,-0.142L0.136,-0.142C0.138,-0.112 0.15,-0.089 0.173,-0.074C0.196,-0.059 0.227,-0.051 0.266,-0.051C0.287,-0.051 0.306,-0.054 0.323,-0.061C0.34,-0.068 0.354,-0.077 0.365,-0.089C0.375,-0.1 0.38,-0.113 0.38,-0.128C0.38,-0.147 0.373,-0.161 0.36,-0.172C0.346,-0.183 0.324,-0.192 0.294,-0.2L0.201,-0.23C0.161,-0.243 0.13,-0.26 0.108,-0.282C0.087,-0.304 0.076,-0.331 0.076,-0.362C0.076,-0.401 0.093,-0.432 0.127,-0.455C0.161,-0.478 0.206,-0.49 0.261,-0.49C0.32,-0.49 0.365,-0.478 0.398,-0.454C0.43,-0.43 0.447,-0.4 0.448,-0.364L0.371,-0.364C0.368,-0.385 0.357,-0.401 0.339,-0.412C0.321,-0.423 0.295,-0.428 0.261,-0.428C0.229,-0.428 0.203,-0.421 0.185,-0.406C0.167,-0.392 0.158,-0.376 0.158,-0.358C0.158,-0.325 0.186,-0.301 0.243,-0.285L0.338,-0.253C0.379,-0.241 0.41,-0.225 0.432,-0.205C0.454,-0.185 0.465,-0.159 0.465,-0.128C0.465,-0.104 0.457,-0.081 0.442,-0.06C0.426,-0.039 0.404,-0.021 0.375,-0.008C0.346,0.005 0.312,0.012 0.273,0.012Z" style="fill:rgb(169,0,0);fill-rule:nonzero;"/>
            </g>
            <g transform="matrix(64,0,0,64,491.152,443.638)">
                <path d="M0.145,-0.591C0.129,-0.591 0.116,-0.596 0.107,-0.605C0.098,-0.614 0.093,-0.626 0.093,-0.641C0.093,-0.656 0.098,-0.667 0.107,-0.676C0.116,-0.685 0.129,-0.689 0.145,-0.689C0.161,-0.689 0.174,-0.685 0.183,-0.676C0.192,-0.667 0.197,-0.656 0.197,-0.641C0.197,-0.626 0.192,-0.614 0.183,-0.605C0.174,-0.596 0.161,-0.591 0.145,-0.591ZM0.106,-0L0.106,-0.479L0.184,-0.479L0.184,-0L0.106,-0Z" style="fill:rgb(169,0,0);fill-rule:nonzero;"/>
            </g>
            <g transform="matrix(64,0,0,64,510.224,443.638)">
                <path d="M0.274,0.012C0.231,0.012 0.193,0.003 0.159,-0.017C0.126,-0.035 0.099,-0.064 0.08,-0.101C0.061,-0.138 0.051,-0.184 0.051,-0.239C0.051,-0.294 0.061,-0.34 0.08,-0.377C0.099,-0.414 0.126,-0.443 0.159,-0.462C0.193,-0.481 0.231,-0.49 0.274,-0.49C0.317,-0.49 0.355,-0.481 0.388,-0.462C0.422,-0.443 0.448,-0.414 0.467,-0.377C0.486,-0.34 0.496,-0.294 0.496,-0.239C0.496,-0.184 0.486,-0.138 0.467,-0.101C0.448,-0.064 0.422,-0.035 0.388,-0.017C0.355,0.003 0.317,0.012 0.274,0.012ZM0.272,-0.056C0.303,-0.056 0.329,-0.063 0.351,-0.078C0.373,-0.093 0.389,-0.114 0.4,-0.142C0.411,-0.169 0.417,-0.201 0.417,-0.239C0.417,-0.296 0.405,-0.341 0.382,-0.374C0.358,-0.407 0.323,-0.423 0.276,-0.423C0.245,-0.423 0.218,-0.416 0.197,-0.401C0.175,-0.386 0.159,-0.365 0.148,-0.337C0.137,-0.31 0.131,-0.277 0.131,-0.239C0.131,-0.183 0.143,-0.138 0.167,-0.105C0.191,-0.072 0.226,-0.056 0.272,-0.056Z" style="fill:rgb(169,0,0);fill-rule:nonzero;"/>
            </g>
            <g transform="matrix(64,0,0,64,545.2,443.638)">
                <path d="M0.441,-0L0.441,-0.281C0.441,-0.327 0.43,-0.361 0.408,-0.385C0.386,-0.409 0.357,-0.421 0.319,-0.421C0.29,-0.421 0.266,-0.413 0.245,-0.398C0.224,-0.382 0.207,-0.359 0.196,-0.33C0.185,-0.301 0.179,-0.266 0.179,-0.226L0.149,-0.226C0.149,-0.282 0.156,-0.329 0.171,-0.369C0.186,-0.408 0.207,-0.438 0.235,-0.459C0.263,-0.48 0.298,-0.49 0.338,-0.49C0.376,-0.49 0.408,-0.482 0.435,-0.465C0.462,-0.448 0.482,-0.424 0.497,-0.393C0.511,-0.361 0.518,-0.324 0.518,-0.281L0.518,-0L0.441,-0ZM0.101,-0L0.101,-0.478L0.168,-0.478L0.179,-0.368L0.179,-0L0.101,-0Z" style="fill:rgb(169,0,0);fill-rule:nonzero;"/>
            </g>
        </g>
    </g>
</svg>
