<svg width="150" height="22" viewBox="0 0 150 22" fill="none" xmlns="http://www.w3.org/2000/svg">
<g clipPath="url(#clip0_1019_6907)">
<path d="M10.1446 7.16879C8.85965 7.16879 7.84522 7.84508 7.84522 8.92713C7.84522 9.3329 8.04811 9.73868 8.31862 9.94156C7.64234 10.3473 7.43945 10.8884 7.43945 11.3618C7.43945 12.4438 8.31862 12.8496 9.53594 13.323C10.6856 13.7288 11.0238 13.9993 11.0238 14.6079C11.0238 15.2842 10.4151 15.6224 9.67119 15.6224C9.06254 15.6224 8.52151 15.4195 8.04811 15.149L7.7776 15.8252C8.251 16.1634 8.92728 16.3663 9.67119 16.3663C10.8209 16.3663 11.9706 15.8252 11.9706 14.5403C11.9706 14.0669 11.7 13.6611 11.4972 13.4582C11.9706 13.0525 12.3087 12.6467 12.3087 11.9704C12.3087 10.8884 11.4295 10.415 10.3475 10.0092C9.40068 9.60342 8.79202 9.40053 8.79202 8.79188C8.79202 8.25085 9.33305 7.91271 10.077 7.91271C10.077 7.91271 10.077 7.91271 10.1446 7.91271C10.618 7.91271 11.159 8.04796 11.5648 8.31848L11.8353 7.64219C11.2943 7.30405 10.7532 7.16879 10.1446 7.16879ZM10.9561 12.9848C10.6856 12.782 10.2122 12.6467 9.53594 12.3762C8.58914 12.038 8.25099 11.6323 8.25099 11.2265C8.25099 10.8884 8.45388 10.5502 8.79202 10.2797C9.19779 10.4826 9.80645 10.7531 10.2798 10.8884C11.0914 11.1589 11.3619 11.5646 11.3619 12.038C11.4295 12.3762 11.2943 12.7143 10.9561 12.9848Z" fill="#1C1C1C"/>
<path d="M19.2741 9.26581V7.03407C19.2741 4.2613 16.9748 1.96193 14.202 1.96193H5.07214C2.29937 1.96193 0 4.2613 0 7.03407V16.2315C0 19.0043 2.29937 21.3037 5.07214 21.3037H14.202C16.9748 21.3037 19.2741 19.0043 19.2741 16.2315V13.9998H15.8251V16.2315C15.8251 17.1107 15.0812 17.8546 14.202 17.8546H8.72408L6.62759 19.4101L6.89811 17.8546H5.07214C4.19297 17.8546 3.44905 17.1107 3.44905 16.2315V7.03407C3.44905 6.1549 4.19297 5.41098 5.07214 5.41098H14.202C15.0812 5.41098 15.8251 6.1549 15.8251 7.03407V9.26581H19.2741Z" fill="black"/>
<path d="M145.266 7.91296C145.739 8.18347 146.145 8.52162 146.483 8.92739C146.821 9.40079 147.092 9.87419 147.227 10.4828C147.43 11.0915 147.497 11.7678 147.497 12.5117C147.497 13.2556 147.43 13.9995 147.227 14.6082C147.024 15.2168 146.821 15.7579 146.483 16.2313C146.145 16.7047 145.739 17.0428 145.266 17.2457C144.792 17.5162 144.319 17.5838 143.71 17.5838C143.169 17.5838 142.628 17.4486 142.155 17.2457C141.681 16.9752 141.343 16.637 141.005 16.2313C140.667 15.7579 140.464 15.2845 140.261 14.6082C140.058 13.9319 139.991 13.2556 139.991 12.5117C139.991 11.7678 140.058 11.0915 140.261 10.4828C140.464 9.87419 140.667 9.33316 141.005 8.85976C141.343 8.38636 141.681 8.04822 142.155 7.84533C142.628 7.57482 143.102 7.50719 143.643 7.50719C144.319 7.57482 144.792 7.71007 145.266 7.91296ZM141.343 6.96616C140.599 7.23668 139.923 7.71007 139.382 8.2511C138.841 8.79213 138.368 9.40079 138.029 10.1447C137.691 10.8886 137.556 11.7002 137.556 12.5793C137.556 13.4585 137.691 14.3377 138.029 15.0816C138.368 15.8255 138.773 16.5018 139.382 17.0428C139.923 17.5838 140.599 18.0572 141.343 18.3277C142.087 18.6659 142.899 18.8011 143.71 18.8011C144.589 18.8011 145.401 18.6659 146.145 18.3277C146.889 17.9896 147.565 17.5838 148.174 17.0428C148.715 16.5018 149.188 15.8255 149.526 15.0816C149.864 14.3377 150 13.4585 150 12.5793C150 11.7002 149.864 10.8886 149.526 10.1447C149.188 9.40079 148.715 8.79213 148.174 8.2511C147.565 7.71007 146.956 7.3043 146.145 6.96616C145.401 6.62802 144.589 6.49276 143.71 6.49276C142.899 6.49276 142.087 6.62802 141.343 6.96616ZM132.619 2.90845C132.89 3.17897 133.228 3.31422 133.634 3.31422C134.039 3.31422 134.377 3.17897 134.648 2.90845C134.918 2.63794 135.054 2.2998 135.054 1.89402C135.054 1.48825 134.918 1.15011 134.648 0.879598C134.377 0.609084 134.039 0.473827 133.634 0.473827C133.228 0.473827 132.89 0.609084 132.619 0.879598C132.349 1.15011 132.213 1.48825 132.213 1.89402C132.213 2.2998 132.349 2.63794 132.619 2.90845ZM134.783 6.49276L130.387 7.37193V8.11585C131.131 8.11585 131.672 8.18347 131.943 8.31873C132.213 8.45399 132.416 8.65687 132.484 8.99502C132.551 9.1979 132.551 9.60367 132.619 10.1447C132.619 10.6857 132.619 11.4296 132.619 12.3088V15.1492C132.619 15.6902 132.619 16.096 132.551 16.4342C132.484 16.7723 132.416 17.0428 132.213 17.2457C132.078 17.4486 131.808 17.5838 131.537 17.6515C131.267 17.7191 130.861 17.7867 130.455 17.7867V18.5983H136.88V17.7867C136.406 17.7867 136.068 17.7191 135.798 17.6515C135.527 17.5838 135.324 17.4486 135.189 17.2457C135.054 17.0428 134.918 16.7723 134.918 16.4342C134.851 16.096 134.851 15.6226 134.851 15.014V6.49276H134.783ZM123.354 8.11585V16.096C123.354 16.9752 123.625 17.6515 124.098 18.1249C124.639 18.5983 125.383 18.8011 126.33 18.8011C127.074 18.8011 127.75 18.6659 128.223 18.3954C128.764 18.1249 129.102 17.6515 129.305 17.1104L128.764 16.7047C128.494 17.1104 128.223 17.3133 128.02 17.5162C127.75 17.6515 127.412 17.7191 127.074 17.7191C126.803 17.7191 126.533 17.6515 126.33 17.5838C126.127 17.5162 125.992 17.3133 125.856 17.1104C125.721 16.9075 125.653 16.637 125.586 16.2313C125.518 15.8931 125.518 15.4197 125.518 14.8787V8.11585H128.494V7.03379H125.518V4.26102H124.842C124.571 4.86968 124.233 5.47833 123.827 5.88411C123.354 6.35751 122.745 6.8309 122.001 7.3043V8.11585H123.354ZM113.954 12.3764C113.277 12.647 112.736 12.9851 112.263 13.2556C111.79 13.5261 111.451 13.8643 111.113 14.1348C110.843 14.4053 110.64 14.7434 110.505 15.0816C110.369 15.4197 110.302 15.7579 110.302 16.096C110.302 16.9075 110.572 17.5162 111.113 17.9896C111.654 18.463 112.398 18.7335 113.345 18.7335C114.157 18.7335 114.968 18.5306 115.644 18.1249C116.321 17.7191 116.862 17.1104 117.267 16.3665H117.403C117.403 17.1104 117.538 17.7191 117.876 18.1249C118.214 18.5306 118.688 18.7335 119.364 18.7335C119.905 18.7335 120.378 18.5983 120.852 18.3954C121.325 18.1925 121.663 17.8543 121.866 17.5162L121.528 16.9752C121.393 17.1781 121.258 17.3133 121.055 17.3809C120.852 17.4486 120.649 17.4486 120.446 17.4486C119.77 17.4486 119.432 16.5694 119.432 14.8787V9.87419C119.432 8.58925 119.093 7.71008 118.485 7.16905C117.876 6.62802 116.794 6.35751 115.306 6.35751C113.886 6.35751 112.804 6.56039 112.06 6.96616C111.316 7.37193 110.91 7.91296 110.91 8.65687C110.91 9.40079 111.316 9.80656 112.06 9.80656C112.331 9.80656 112.601 9.73893 112.736 9.60367C112.872 9.46842 113.074 9.1979 113.21 8.7245C113.277 8.45399 113.413 8.18347 113.48 7.98059C113.548 7.7777 113.683 7.64245 113.818 7.50719C113.954 7.37193 114.089 7.3043 114.292 7.3043C114.495 7.23668 114.698 7.23668 114.968 7.23668C116.524 7.23668 117.267 8.11585 117.267 9.94182V10.8886L113.954 12.3764ZM117.132 13.729C117.132 14.27 117.065 14.7434 116.929 15.1492C116.794 15.6226 116.591 16.0284 116.321 16.3665C116.05 16.7047 115.78 16.9752 115.441 17.1781C115.103 17.3809 114.765 17.4486 114.359 17.4486C113.818 17.4486 113.413 17.3133 113.074 16.9752C112.736 16.637 112.601 16.2313 112.601 15.7579C112.601 15.4197 112.669 15.0816 112.804 14.8111C112.939 14.4729 113.21 14.2024 113.548 13.8643C113.886 13.5261 114.359 13.2556 114.968 12.9175C115.577 12.5793 116.253 12.3088 117.132 11.9707V13.729ZM107.056 0.000427246L102.795 0.811969V1.55588C103.539 1.55588 104.012 1.62351 104.283 1.75877C104.553 1.89402 104.756 2.09691 104.824 2.43505C104.891 2.63794 104.891 2.97608 104.891 3.51711C104.891 4.05814 104.891 4.73442 104.891 5.54596V15.2168C104.891 15.7579 104.891 16.1636 104.824 16.5018C104.756 16.8399 104.689 17.0428 104.486 17.2457C104.35 17.4486 104.148 17.5838 103.877 17.6515C103.606 17.7191 103.268 17.7867 102.795 17.7867V18.5983H108.949V17.7867C108.543 17.7867 108.138 17.7191 107.935 17.6515C107.664 17.5838 107.461 17.4486 107.326 17.2457C107.191 17.0428 107.123 16.7723 107.056 16.4342C106.988 16.096 106.988 15.6226 106.988 15.0816V0.000427246H107.056ZM99.7517 0.000427246L95.4911 0.811969V1.55588C96.235 1.55588 96.7084 1.62351 96.9789 1.75877C97.2494 1.89402 97.4523 2.09691 97.5199 2.43505C97.5875 2.63794 97.5876 2.97608 97.5876 3.51711C97.5876 4.05814 97.5876 4.73442 97.5876 5.54596V15.2168C97.5876 15.7579 97.5875 16.1636 97.5199 16.5018C97.4523 16.8399 97.3847 17.0428 97.1818 17.2457C97.0465 17.4486 96.8436 17.5838 96.5731 17.6515C96.3026 17.7191 95.9645 17.7867 95.4911 17.7867V18.5983H101.645V17.7867C101.239 17.7867 100.834 17.7191 100.631 17.6515C100.36 17.5838 100.157 17.4486 100.022 17.2457C99.8869 17.0428 99.8193 16.7723 99.7517 16.4342C99.684 16.096 99.684 15.6226 99.684 15.0816V0.000427246H99.7517ZM86.767 10.4828C87.1728 8.58925 88.1872 7.57482 89.7426 7.57482C90.4866 7.57482 91.0952 7.7777 91.5686 8.18347C92.042 8.58925 92.2449 9.13027 92.2449 9.80656C92.2449 9.94182 92.2449 10.0771 92.1773 10.1447C92.1096 10.2123 92.1096 10.28 91.9744 10.3476C91.9068 10.4152 91.7715 10.4152 91.5686 10.4152C91.3657 10.4152 91.1628 10.4152 90.8247 10.4152H86.767V10.4828ZM93.868 15.8931C93.327 16.5018 92.7183 16.9752 92.1773 17.2457C91.6362 17.5162 91.0276 17.6515 90.4189 17.6515C89.8103 17.6515 89.2692 17.5162 88.7958 17.3133C88.3224 17.0428 87.9167 16.7047 87.5109 16.2989C87.1728 15.8255 86.9022 15.2845 86.6994 14.6758C86.4965 14.0672 86.4289 13.3232 86.4289 12.5793C86.4289 12.3764 86.4289 12.1736 86.4289 12.0383C86.4289 11.8354 86.4965 11.7002 86.4965 11.6325H93.868C94.1385 11.6325 94.3414 11.6325 94.409 11.5649C94.4766 11.4973 94.5443 11.362 94.5443 11.1591C94.5443 9.6713 94.1385 8.58925 93.327 7.7777C92.5154 6.96616 91.4334 6.62802 89.9455 6.62802C89.0664 6.62802 88.2548 6.76328 87.4433 7.10142C86.6994 7.43956 86.0231 7.84533 85.4821 8.38636C84.941 8.92739 84.5353 9.60367 84.1971 10.3476C83.9266 11.0915 83.7237 11.9707 83.7237 12.8498C83.7237 13.729 83.859 14.5406 84.1295 15.2845C84.4 16.0284 84.8058 16.637 85.3468 17.1781C85.8878 17.7191 86.4965 18.1249 87.1728 18.3954C87.9167 18.6659 88.6606 18.8011 89.5398 18.8011C91.4333 18.8011 92.9888 18.0572 94.2738 16.5018L93.868 15.8931ZM77.3666 8.11585V16.096C77.3666 16.9752 77.6371 17.6515 78.1105 18.1249C78.6516 18.5983 79.3955 18.8011 80.3423 18.8011C81.0862 18.8011 81.7625 18.6659 82.2359 18.3954C82.7769 18.1249 83.1151 17.6515 83.3179 17.1104L82.7769 16.7047C82.5064 17.1104 82.2359 17.3133 82.033 17.5162C81.7625 17.6515 81.4243 17.7191 81.0862 17.7191C80.8157 17.7191 80.5452 17.6515 80.3423 17.5838C80.1394 17.5162 80.0041 17.3133 79.8689 17.1104C79.7336 16.9075 79.666 16.637 79.5984 16.2313C79.5307 15.8931 79.5307 15.4197 79.5307 14.8787V8.11585H82.5064V7.03379H79.5307V4.26102H78.8545C78.5839 4.86968 78.2458 5.47833 77.84 5.88411C77.4343 6.28988 76.758 6.8309 76.0141 7.3043V8.11585H77.3666ZM68.0339 17.7867C68.8454 18.463 69.8599 18.8011 71.0096 18.8011C72.1592 18.8011 73.0384 18.5306 73.7147 17.922C74.391 17.3133 74.7291 16.5018 74.7291 15.4197C74.7291 15.014 74.6615 14.6082 74.5262 14.27C74.391 13.9319 74.1881 13.5938 73.9176 13.3232C73.6471 12.9851 73.2413 12.7146 72.8355 12.3764C72.3621 12.0383 71.8211 11.7002 71.2124 11.2944C70.8067 11.0239 70.4685 10.821 70.198 10.6857C69.9275 10.4828 69.7246 10.3476 69.5217 10.1447C69.3188 9.94182 69.1836 9.80656 69.116 9.60367C69.0483 9.40079 68.9807 9.1979 68.9807 8.92739C68.9807 8.45399 69.116 8.04822 69.4541 7.7777C69.7922 7.50719 70.198 7.37193 70.6714 7.37193C71.2124 7.37193 71.6858 7.57482 72.0916 7.98059C72.4974 8.38636 72.8355 8.99502 73.1737 9.94182H73.7823V6.69565H73.3765L72.9032 7.16905C72.565 6.96616 72.2269 6.76328 71.7535 6.69565C71.3477 6.56039 70.8743 6.49276 70.4685 6.49276C69.9951 6.49276 69.5217 6.56039 69.116 6.76328C68.7102 6.96616 68.372 7.16905 68.0339 7.43956C67.7634 7.71008 67.4929 8.11585 67.3576 8.52162C67.1547 8.92739 67.0871 9.40079 67.0871 9.94182C67.0871 10.3476 67.1547 10.7534 67.29 11.0239C67.4252 11.362 67.6281 11.6325 67.831 11.903C68.1015 12.1736 68.372 12.4441 68.7778 12.7146C69.1836 12.9851 69.5894 13.2556 70.1304 13.5938C70.6714 13.9319 71.1448 14.2024 71.4829 14.4729C71.8211 14.6758 72.0916 14.8787 72.2945 15.0816C72.4974 15.2845 72.6326 15.4197 72.7003 15.555C72.7679 15.6902 72.7679 15.8931 72.7679 16.096C72.7679 16.7047 72.565 17.1104 72.2269 17.4486C71.8887 17.7191 71.4153 17.8543 70.8067 17.8543C69.2512 17.8543 68.2368 16.7723 67.6281 14.6758H67.0871V18.5306H67.5605L68.0339 17.7867ZM55.455 12.0383C55.455 11.7002 55.455 11.362 55.455 11.1591C55.455 10.9562 55.5226 10.7534 55.5226 10.5505C55.5226 10.3476 55.5903 10.2123 55.6579 10.0771C55.7255 9.94182 55.7931 9.80656 55.8608 9.6713C56.1989 9.06264 56.6047 8.58925 57.1457 8.2511C57.6867 7.91296 58.2954 7.71007 58.9717 7.71007C59.4451 7.71007 59.8509 7.7777 60.189 7.91296C60.5271 8.04822 60.7976 8.31873 61.0005 8.65687C61.2034 8.99502 61.3387 9.46842 61.4063 10.0771C61.4739 10.6857 61.5416 11.362 61.5416 12.2412V15.2168C61.5416 15.7579 61.5416 16.2313 61.4739 16.5694C61.4063 16.9076 61.3387 17.1781 61.2034 17.3133C61.0682 17.5162 60.8653 17.5838 60.6624 17.6515C60.3919 17.7191 60.0537 17.7867 59.648 17.7867V18.5306H65.464V17.7867C65.0582 17.7867 64.7201 17.7191 64.5172 17.6515C64.2467 17.5838 64.1114 17.4486 63.9762 17.3133C63.8409 17.1104 63.7733 16.8399 63.7733 16.5018C63.7057 16.1636 63.7057 15.6902 63.7057 15.0816V11.362C63.7057 10.4152 63.638 9.6713 63.5704 9.13027C63.4352 8.58925 63.2999 8.11585 63.0294 7.7777C62.7589 7.37193 62.2855 7.10142 61.7444 6.8309C61.2034 6.62802 60.5271 6.49276 59.8509 6.49276C58.9717 6.49276 58.1601 6.69565 57.3486 7.10142C56.6047 7.50719 55.9284 8.04822 55.3874 8.7245H55.3197L55.0492 6.49276L51.3973 7.37193V8.11585C51.7354 8.11585 52.0059 8.11585 52.2088 8.11585C52.4117 8.11585 52.6146 8.18347 52.7499 8.2511C52.8851 8.31873 52.9527 8.38636 53.0204 8.52162C53.088 8.65687 53.1556 8.79213 53.1556 8.99502C53.2233 9.40079 53.2909 10.4828 53.2909 12.2412V15.2168C53.2909 15.7579 53.2909 16.2313 53.2233 16.5694C53.1556 16.9076 53.088 17.1781 52.9527 17.3133C52.8175 17.5162 52.6146 17.5838 52.4117 17.6515C52.1412 17.7191 51.8031 17.7867 51.3973 17.7867V18.5306H57.281V17.7867C56.8752 17.7867 56.5371 17.7191 56.2665 17.6515C55.996 17.5838 55.8608 17.4486 55.7255 17.3133C55.5903 17.1104 55.5226 16.8399 55.5226 16.5018C55.5226 16.1636 55.455 15.6902 55.455 15.0816V12.0383ZM45.6489 7.91296C46.1223 8.18347 46.528 8.52162 46.8662 8.92739C47.2043 9.40079 47.4748 9.87419 47.6101 10.4828C47.813 11.0915 47.8806 11.7678 47.8806 12.5117C47.8806 13.2556 47.813 13.9995 47.6101 14.6082C47.4072 15.2168 47.2043 15.7579 46.8662 16.2313C46.528 16.7047 46.1223 17.0428 45.6489 17.2457C45.1755 17.5162 44.7021 17.5838 44.0934 17.5838C43.4848 17.5838 43.0114 17.4486 42.538 17.2457C42.0646 16.9752 41.7264 16.637 41.3883 16.2313C41.0501 15.7579 40.8472 15.2845 40.6444 14.6082C40.4415 13.9995 40.3738 13.2556 40.3738 12.5117C40.3738 11.7678 40.4415 11.0915 40.6444 10.4828C40.8472 9.87419 41.0501 9.33316 41.3883 8.85976C41.7264 8.38636 42.0646 8.04822 42.538 7.84533C43.0114 7.57482 43.4848 7.50719 44.0258 7.50719C44.6344 7.57482 45.1755 7.71007 45.6489 7.91296ZM41.7264 6.96616C40.9825 7.23668 40.3062 7.71007 39.7652 8.2511C39.2242 8.79213 38.7508 9.40079 38.4126 10.1447C38.0745 10.8886 37.9392 11.7002 37.9392 12.5793C37.9392 13.4585 38.0745 14.3377 38.4126 15.0816C38.7508 15.8255 39.1565 16.5018 39.7652 17.0428C40.3062 17.5838 40.9825 18.0572 41.7264 18.3277C42.4703 18.6659 43.2819 18.8011 44.0934 18.8011C44.9726 18.8011 45.7165 18.6659 46.528 18.3277C47.272 17.9896 47.9482 17.5838 48.5569 17.0428C49.0979 16.5018 49.5713 15.8255 49.9095 15.0816C50.2476 14.3377 50.3829 13.4585 50.3829 12.5793C50.3829 11.7002 50.2476 10.8886 49.9095 10.1447C49.5713 9.40079 49.0979 8.79213 48.5569 8.2511C47.9482 7.71007 47.3396 7.3043 46.528 6.96616C45.7841 6.62802 44.9726 6.49276 44.0934 6.49276C43.2142 6.49276 42.4703 6.62802 41.7264 6.96616ZM36.2485 16.096C35.7075 16.637 35.0988 17.0428 34.5578 17.3133C34.0168 17.5838 33.4081 17.6515 32.7995 17.6515C31.6498 17.6515 30.7706 17.1781 30.1619 16.2989C29.5533 15.4197 29.2828 14.1348 29.2828 12.3764C29.2828 10.7534 29.5533 9.60367 30.0943 8.7245C30.6353 7.91296 31.4469 7.50719 32.5289 7.50719C32.9347 7.50719 33.3405 7.57482 33.611 7.71007C33.8815 7.84533 34.152 8.11585 34.4902 8.45399C34.7607 8.85976 35.0312 9.06264 35.1665 9.1979C35.3693 9.33316 35.5722 9.33316 35.8427 9.33316C36.1809 9.33316 36.4514 9.26553 36.6543 9.06264C36.8572 8.92739 36.9248 8.65687 36.9248 8.38636C36.9248 8.11585 36.8572 7.84533 36.6543 7.57482C36.4514 7.3043 36.1809 7.10142 35.8427 6.96616C35.5046 6.76328 35.0988 6.62802 34.6254 6.56039C34.152 6.49276 33.611 6.42513 33.0023 6.42513C32.0555 6.42513 31.244 6.56039 30.4325 6.8309C29.6885 7.10142 29.0123 7.50719 28.4712 8.11585C27.9302 8.7245 27.5244 9.33316 27.1863 10.0771C26.9158 10.821 26.7129 11.7002 26.7129 12.647C26.7129 13.5261 26.8481 14.4053 27.1187 15.1492C27.3892 15.8931 27.7273 16.5018 28.2007 17.0428C28.6741 17.5838 29.2828 17.9896 29.8914 18.2601C30.5677 18.5306 31.3116 18.6659 32.0555 18.6659C33.07 18.6659 33.9491 18.463 34.8283 18.1249C35.7075 17.7867 36.3838 17.2457 36.9248 16.5694L36.2485 16.096Z" fill="black"/>
</g>
<defs>
<clipPath id="clip0_1019_6907">
<rect width="150" height="21.303" fill="white"/>
</clipPath>
</defs>
</svg>
