<svg width="141" height="20" viewBox="0 0 141 20" fill="none" xmlns="http://www.w3.org/2000/svg">
<g id="Group 1">
<path id="Vector" d="M9.52434 6.72961C8.31803 6.72961 7.36568 7.36451 7.36568 8.38035C7.36568 8.76129 7.55615 9.14223 7.81011 9.3327C7.17521 9.71364 6.98474 10.2216 6.98474 10.666C6.98474 11.6818 7.81011 12.0628 8.95293 12.5072C10.0323 12.8881 10.3497 13.1421 10.3497 13.7135C10.3497 14.3484 9.7783 14.6659 9.07991 14.6659C8.5085 14.6659 8.00058 14.4754 7.55615 14.2214L7.30219 14.8563C7.74662 15.1738 8.38152 15.3643 9.07991 15.3643C10.1592 15.3643 11.2386 14.8563 11.2386 13.65C11.2386 13.2056 10.9846 12.8247 10.7941 12.6342C11.2386 12.2532 11.556 11.8723 11.556 11.2374C11.556 10.2216 10.7307 9.77713 9.71481 9.39619C8.82595 9.01525 8.25454 8.82478 8.25454 8.25337C8.25454 7.74545 8.76246 7.428 9.46085 7.428C9.46085 7.428 9.46085 7.428 9.52434 7.428C9.96877 7.428 10.4767 7.55498 10.8576 7.80894L11.1116 7.17404C10.6037 6.85659 10.0958 6.72961 9.52434 6.72961ZM10.2862 12.1898C10.0323 11.9993 9.58783 11.8723 8.95293 11.6183C8.06407 11.3009 7.74662 10.92 7.74662 10.539C7.74662 10.2216 7.93709 9.90411 8.25454 9.65015C8.63548 9.84062 9.20689 10.0946 9.65132 10.2216C10.4132 10.4755 10.6672 10.8565 10.6672 11.3009C10.7307 11.6183 10.6037 11.9358 10.2862 12.1898Z" fill="black"/>
<path id="Vector_2" d="M18.0947 8.69896V6.60379C18.0947 4.0007 15.936 1.84204 13.3329 1.84204H4.76175C2.15866 1.84204 0 4.0007 0 6.60379V15.2384C0 17.8415 2.15866 20.0002 4.76175 20.0002H13.3329C15.936 20.0002 18.0947 17.8415 18.0947 15.2384V13.1433H14.8567V15.2384C14.8567 16.0638 14.1583 16.7622 13.3329 16.7622H8.19021L6.22202 18.2225L6.47598 16.7622H4.76175C3.93638 16.7622 3.23799 16.0638 3.23799 15.2384V6.60379C3.23799 5.77842 3.93638 5.08003 4.76175 5.08003H13.3329C14.1583 5.08003 14.8567 5.77842 14.8567 6.60379V8.69896H18.0947Z" fill="#A90000"/>
<path id="Vector_3" d="M136.376 7.42833C136.82 7.68229 137.201 7.99974 137.518 8.38068C137.836 8.82511 138.09 9.26954 138.217 9.84095C138.407 10.4124 138.471 11.0473 138.471 11.7457C138.471 12.444 138.407 13.1424 138.217 13.7138C138.026 14.2853 137.836 14.7932 137.518 15.2376C137.201 15.682 136.82 15.9995 136.376 16.19C135.931 16.4439 135.487 16.5074 134.915 16.5074C134.407 16.5074 133.9 16.3804 133.455 16.19C133.011 15.936 132.693 15.6185 132.376 15.2376C132.058 14.7932 131.868 14.3487 131.677 13.7138C131.487 13.0789 131.423 12.444 131.423 11.7457C131.423 11.0473 131.487 10.4124 131.677 9.84095C131.868 9.26954 132.058 8.76162 132.376 8.31719C132.693 7.87276 133.011 7.55531 133.455 7.36484C133.9 7.11088 134.344 7.04739 134.852 7.04739C135.487 7.11088 135.931 7.23786 136.376 7.42833ZM132.693 6.53947C131.995 6.79343 131.36 7.23786 130.852 7.74578C130.344 8.2537 129.9 8.82511 129.582 9.5235C129.265 10.2219 129.138 10.9838 129.138 11.8091C129.138 12.6345 129.265 13.4599 129.582 14.1583C129.9 14.8567 130.281 15.4916 130.852 15.9995C131.36 16.5074 131.995 16.9518 132.693 17.2058C133.392 17.5232 134.153 17.6502 134.915 17.6502C135.741 17.6502 136.503 17.5232 137.201 17.2058C137.899 16.8883 138.534 16.5074 139.106 15.9995C139.614 15.4916 140.058 14.8567 140.375 14.1583C140.693 13.4599 140.82 12.6345 140.82 11.8091C140.82 10.9838 140.693 10.2219 140.375 9.5235C140.058 8.82511 139.614 8.2537 139.106 7.74578C138.534 7.23786 137.963 6.85692 137.201 6.53947C136.503 6.22202 135.741 6.09504 134.915 6.09504C134.153 6.09504 133.392 6.22202 132.693 6.53947ZM124.503 2.73007C124.757 2.98403 125.074 3.11101 125.455 3.11101C125.836 3.11101 126.154 2.98403 126.408 2.73007C126.662 2.47611 126.789 2.15866 126.789 1.77772C126.789 1.39678 126.662 1.07933 126.408 0.82537C126.154 0.57141 125.836 0.44443 125.455 0.44443C125.074 0.44443 124.757 0.57141 124.503 0.82537C124.249 1.07933 124.122 1.39678 124.122 1.77772C124.122 2.15866 124.249 2.47611 124.503 2.73007ZM126.535 6.09504L122.408 6.92041V7.6188C123.106 7.6188 123.614 7.68229 123.868 7.80927C124.122 7.93625 124.313 8.12672 124.376 8.44417C124.439 8.63464 124.44 9.01558 124.503 9.5235C124.503 10.0314 124.503 10.7298 124.503 11.5552V14.2218C124.503 14.7297 124.503 15.1106 124.44 15.4281C124.376 15.7455 124.313 15.9995 124.122 16.19C123.995 16.3804 123.741 16.5074 123.487 16.5709C123.233 16.6344 122.852 16.6979 122.471 16.6979V17.4598H128.503V16.6979C128.058 16.6979 127.741 16.6344 127.487 16.5709C127.233 16.5074 127.043 16.3804 126.916 16.19C126.789 15.9995 126.662 15.7455 126.662 15.4281C126.598 15.1106 126.598 14.6662 126.598 14.0948V6.09504H126.535ZM115.805 7.6188V15.1106C115.805 15.936 116.059 16.5709 116.503 17.0153C117.011 17.4598 117.71 17.6502 118.598 17.6502C119.297 17.6502 119.932 17.5232 120.376 17.2693C120.884 17.0153 121.202 16.5709 121.392 16.063L120.884 15.682C120.63 16.063 120.376 16.2534 120.186 16.4439C119.932 16.5709 119.614 16.6344 119.297 16.6344C119.043 16.6344 118.789 16.5709 118.598 16.5074C118.408 16.4439 118.281 16.2534 118.154 16.063C118.027 15.8725 117.964 15.6185 117.9 15.2376C117.837 14.9202 117.837 14.4757 117.837 13.9678V7.6188H120.63V6.60296H117.837V3.99987H117.202C116.948 4.57128 116.63 5.14269 116.249 5.52363C115.805 5.96806 115.233 6.41249 114.535 6.85692V7.6188H115.805ZM106.98 11.6187C106.345 11.8726 105.837 12.1901 105.392 12.444C104.948 12.698 104.631 13.0155 104.313 13.2694C104.059 13.5234 103.869 13.8408 103.742 14.1583C103.615 14.4757 103.551 14.7932 103.551 15.1106C103.551 15.8725 103.805 16.4439 104.313 16.8883C104.821 17.3328 105.519 17.5867 106.408 17.5867C107.17 17.5867 107.932 17.3963 108.567 17.0153C109.202 16.6344 109.71 16.063 110.091 15.3646H110.218C110.218 16.063 110.345 16.6344 110.662 17.0153C110.98 17.3963 111.424 17.5867 112.059 17.5867C112.567 17.5867 113.011 17.4598 113.456 17.2693C113.9 17.0788 114.218 16.7614 114.408 16.4439L114.091 15.936C113.964 16.1265 113.837 16.2534 113.646 16.3169C113.456 16.3804 113.265 16.3804 113.075 16.3804C112.44 16.3804 112.122 15.5551 112.122 13.9678V9.26954C112.122 8.06323 111.805 7.23786 111.234 6.72994C110.662 6.22202 109.646 5.96806 108.25 5.96806C106.916 5.96806 105.9 6.15853 105.202 6.53947C104.504 6.92041 104.123 7.42833 104.123 8.12672C104.123 8.82511 104.504 9.20605 105.202 9.20605C105.456 9.20605 105.71 9.14256 105.837 9.01558C105.964 8.8886 106.154 8.63464 106.281 8.19021C106.345 7.93625 106.472 7.68229 106.535 7.49182C106.599 7.30135 106.726 7.17437 106.853 7.04739C106.98 6.92041 107.107 6.85692 107.297 6.85692C107.488 6.79343 107.678 6.79343 107.932 6.79343C109.392 6.79343 110.091 7.6188 110.091 9.33303V10.2219L106.98 11.6187ZM109.964 12.8885C109.964 13.3964 109.9 13.8408 109.773 14.2218C109.646 14.6662 109.456 15.0471 109.202 15.3646C108.948 15.682 108.694 15.936 108.377 16.1265C108.059 16.3169 107.742 16.3804 107.361 16.3804C106.853 16.3804 106.472 16.2534 106.154 15.936C105.837 15.6185 105.71 15.2376 105.71 14.7932C105.71 14.4757 105.773 14.1583 105.9 13.9043C106.027 13.5869 106.281 13.3329 106.599 13.0155C106.916 12.698 107.361 12.444 107.932 12.1266C108.504 11.8091 109.138 11.5552 109.964 11.2377V12.8885ZM100.504 0L96.5039 0.76188V1.46027C97.2023 1.46027 97.6467 1.52376 97.9007 1.65074C98.1546 1.77772 98.3451 1.96819 98.4086 2.28564C98.4721 2.47611 98.4721 2.79356 98.4721 3.30148C98.4721 3.8094 98.4721 4.4443 98.4721 5.20618V14.2853C98.4721 14.7932 98.4721 15.1741 98.4086 15.4916C98.3451 15.809 98.2816 15.9995 98.0911 16.19C97.9642 16.3804 97.7737 16.5074 97.5197 16.5709C97.2658 16.6344 96.9483 16.6979 96.5039 16.6979V17.4598H102.281V16.6979C101.901 16.6979 101.52 16.6344 101.329 16.5709C101.075 16.5074 100.885 16.3804 100.758 16.19C100.631 15.9995 100.567 15.7455 100.504 15.4281C100.44 15.1106 100.44 14.6662 100.44 14.1583V0H100.504ZM93.6468 0L89.647 0.76188V1.46027C90.3454 1.46027 90.7898 1.52376 91.0438 1.65074C91.2977 1.77772 91.4882 1.96819 91.5517 2.28564C91.6152 2.47611 91.6152 2.79356 91.6152 3.30148C91.6152 3.8094 91.6152 4.4443 91.6152 5.20618V14.2853C91.6152 14.7932 91.6152 15.1741 91.5517 15.4916C91.4882 15.809 91.4247 15.9995 91.2342 16.19C91.1072 16.3804 90.9168 16.5074 90.6628 16.5709C90.4089 16.6344 90.0914 16.6979 89.647 16.6979V17.4598H95.4246V16.6979C95.0436 16.6979 94.6627 16.6344 94.4722 16.5709C94.2183 16.5074 94.0278 16.3804 93.9008 16.19C93.7738 15.9995 93.7103 15.7455 93.6468 15.4281C93.5834 15.1106 93.5834 14.6662 93.5834 14.1583V0H93.6468ZM81.4568 9.84095C81.8377 8.06323 82.7901 7.11088 84.2503 7.11088C84.9487 7.11088 85.5201 7.30135 85.9646 7.68229C86.409 8.06323 86.5995 8.57115 86.5995 9.20605C86.5995 9.33303 86.5995 9.46001 86.536 9.5235C86.4725 9.58699 86.4725 9.65048 86.3455 9.71397C86.282 9.77746 86.155 9.77746 85.9646 9.77746C85.7741 9.77746 85.5836 9.77746 85.2662 9.77746H81.4568V9.84095ZM88.1232 14.9202C87.6153 15.4916 87.0439 15.936 86.536 16.19C86.028 16.4439 85.4566 16.5709 84.8852 16.5709C84.3138 16.5709 83.8059 16.4439 83.3615 16.2534C82.917 15.9995 82.5361 15.682 82.1552 15.3011C81.8377 14.8567 81.5837 14.3487 81.3933 13.7773C81.2028 13.2059 81.1393 12.5075 81.1393 11.8091C81.1393 11.6187 81.1393 11.4282 81.1393 11.3012C81.1393 11.1108 81.2028 10.9838 81.2028 10.9203H88.1232C88.3772 10.9203 88.5676 10.9203 88.6311 10.8568C88.6946 10.7933 88.7581 10.6663 88.7581 10.4759C88.7581 9.07907 88.3772 8.06323 87.6153 7.30135C86.8534 6.53947 85.8376 6.22202 84.4408 6.22202C83.6154 6.22202 82.8535 6.349 82.0917 6.66645C81.3933 6.9839 80.7584 7.36484 80.2505 7.87276C79.7425 8.38068 79.3616 9.01558 79.0441 9.71397C78.7902 10.4124 78.5997 11.2377 78.5997 12.0631C78.5997 12.8885 78.7267 13.6504 78.9807 14.3487C79.2346 15.0471 79.6156 15.6185 80.1235 16.1265C80.6314 16.6344 81.2028 17.0153 81.8377 17.2693C82.5361 17.5232 83.2345 17.6502 84.0599 17.6502C85.8376 17.6502 87.2978 16.9518 88.5042 15.4916L88.1232 14.9202ZM72.6317 7.6188V15.1106C72.6317 15.936 72.8856 16.5709 73.33 17.0153C73.838 17.4598 74.5364 17.6502 75.4252 17.6502C76.1236 17.6502 76.7585 17.5232 77.2029 17.2693C77.7109 17.0153 78.0283 16.5709 78.2188 16.063L77.7109 15.682C77.4569 16.063 77.2029 16.2534 77.0125 16.4439C76.7585 16.5709 76.4411 16.6344 76.1236 16.6344C75.8696 16.6344 75.6157 16.5709 75.4252 16.5074C75.2347 16.4439 75.1078 16.2534 74.9808 16.063C74.8538 15.8725 74.7903 15.6185 74.7268 15.2376C74.6633 14.9202 74.6633 14.4757 74.6633 13.9678V7.6188H77.4569V6.60296H74.6633V3.99987H74.0284C73.7745 4.57128 73.457 5.14269 73.0761 5.52363C72.6951 5.90457 72.0602 6.41249 71.3619 6.85692V7.6188H72.6317ZM63.87 16.6979C64.6319 17.3328 65.5843 17.6502 66.6636 17.6502C67.7429 17.6502 68.5683 17.3963 69.2032 16.8249C69.8381 16.2534 70.1555 15.4916 70.1555 14.4757C70.1555 14.0948 70.0921 13.7138 69.9651 13.3964C69.8381 13.0789 69.6476 12.7615 69.3937 12.5075C69.1397 12.1901 68.7588 11.9361 68.3778 11.6187C67.9334 11.3012 67.4255 10.9838 66.8541 10.6028C66.4731 10.3489 66.1557 10.1584 65.9017 10.0314C65.6478 9.84095 65.4573 9.71397 65.2668 9.5235C65.0763 9.33303 64.9494 9.20605 64.8859 9.01558C64.8224 8.82511 64.7589 8.63464 64.7589 8.38068C64.7589 7.93625 64.8859 7.55531 65.2033 7.30135C65.5208 7.04739 65.9017 6.92041 66.3461 6.92041C66.8541 6.92041 67.2985 7.11088 67.6794 7.49182C68.0604 7.87276 68.3778 8.44417 68.6953 9.33303H69.2667V6.28551H68.8857L68.4413 6.72994C68.1239 6.53947 67.8064 6.349 67.362 6.28551C66.981 6.15853 66.5366 6.09504 66.1557 6.09504C65.7112 6.09504 65.2668 6.15853 64.8859 6.349C64.5049 6.53947 64.1875 6.72994 63.87 6.9839C63.6161 7.23786 63.3621 7.6188 63.2351 7.99974C63.0447 8.38068 62.9812 8.82511 62.9812 9.33303C62.9812 9.71397 63.0447 10.0949 63.1716 10.3489C63.2986 10.6663 63.4891 10.9203 63.6796 11.1742C63.9335 11.4282 64.1875 11.6822 64.5684 11.9361C64.9494 12.1901 65.3303 12.444 65.8382 12.7615C66.3461 13.0789 66.7906 13.3329 67.108 13.5869C67.4255 13.7773 67.6794 13.9678 67.8699 14.1583C68.0604 14.3487 68.1874 14.4757 68.2508 14.6027C68.3143 14.7297 68.3143 14.9202 68.3143 15.1106C68.3143 15.682 68.1239 16.063 67.8064 16.3804C67.489 16.6344 67.0445 16.7614 66.4731 16.7614C65.0129 16.7614 64.0605 15.7455 63.4891 13.7773H62.9812V17.3963H63.4256L63.87 16.6979ZM52.0609 11.3012C52.0609 10.9838 52.0609 10.6663 52.0609 10.4759C52.0609 10.2854 52.1244 10.0949 52.1244 9.90444C52.1244 9.71397 52.1879 9.58699 52.2514 9.46001C52.3149 9.33303 52.3783 9.20605 52.4418 9.07907C52.7593 8.50766 53.1402 8.06323 53.6481 7.74578C54.1561 7.42833 54.7275 7.23786 55.3624 7.23786C55.8068 7.23786 56.1877 7.30135 56.5052 7.42833C56.8226 7.55531 57.0766 7.80927 57.2671 8.12672C57.4575 8.44417 57.5845 8.8886 57.648 9.46001C57.7115 10.0314 57.775 10.6663 57.775 11.4917V14.2853C57.775 14.7932 57.775 15.2376 57.7115 15.5551C57.648 15.8725 57.5845 16.1265 57.4575 16.2534C57.3306 16.4439 57.1401 16.5074 56.9496 16.5709C56.6957 16.6344 56.3782 16.6979 55.9973 16.6979V17.3963H61.4574V16.6979C61.0765 16.6979 60.759 16.6344 60.5686 16.5709C60.3146 16.5074 60.1876 16.3804 60.0606 16.2534C59.9337 16.063 59.8702 15.809 59.8702 15.4916C59.8067 15.1741 59.8067 14.7297 59.8067 14.1583V10.6663C59.8067 9.77746 59.7432 9.07907 59.6797 8.57115C59.5527 8.06323 59.4257 7.6188 59.1718 7.30135C58.9178 6.92041 58.4734 6.66645 57.9655 6.41249C57.4575 6.22202 56.8226 6.09504 56.1877 6.09504C55.3624 6.09504 54.6005 6.28551 53.8386 6.66645C53.1402 7.04739 52.5053 7.55531 51.9974 8.19021H51.9339L51.68 6.09504L48.2515 6.92041V7.6188C48.5689 7.6188 48.8229 7.6188 49.0134 7.6188C49.2038 7.6188 49.3943 7.68229 49.5213 7.74578C49.6483 7.80927 49.7118 7.87276 49.7753 7.99974C49.8387 8.12672 49.9022 8.2537 49.9022 8.44417C49.9657 8.82511 50.0292 9.84095 50.0292 11.4917V14.2853C50.0292 14.7932 50.0292 15.2376 49.9657 15.5551C49.9022 15.8725 49.8387 16.1265 49.7118 16.2534C49.5848 16.4439 49.3943 16.5074 49.2038 16.5709C48.9499 16.6344 48.6324 16.6979 48.2515 16.6979V17.3963H53.7751V16.6979C53.3942 16.6979 53.0767 16.6344 52.8228 16.5709C52.5688 16.5074 52.4418 16.3804 52.3149 16.2534C52.1879 16.063 52.1244 15.809 52.1244 15.4916C52.1244 15.1741 52.0609 14.7297 52.0609 14.1583V11.3012ZM42.8548 7.42833C43.2993 7.68229 43.6802 7.99974 43.9977 8.38068C44.3151 8.82511 44.5691 9.26954 44.6961 9.84095C44.8865 10.4124 44.95 11.0473 44.95 11.7457C44.95 12.444 44.8865 13.1424 44.6961 13.7138C44.5056 14.2853 44.3151 14.7932 43.9977 15.2376C43.6802 15.682 43.2993 15.9995 42.8548 16.19C42.4104 16.4439 41.966 16.5074 41.3946 16.5074C40.8232 16.5074 40.3787 16.3804 39.9343 16.19C39.4899 15.936 39.1724 15.6185 38.855 15.2376C38.5375 14.7932 38.347 14.3487 38.1566 13.7138C37.9661 13.1424 37.9026 12.444 37.9026 11.7457C37.9026 11.0473 37.9661 10.4124 38.1566 9.84095C38.347 9.26954 38.5375 8.76162 38.855 8.31719C39.1724 7.87276 39.4899 7.55531 39.9343 7.36484C40.3787 7.11088 40.8232 7.04739 41.3311 7.04739C41.9025 7.11088 42.4104 7.23786 42.8548 7.42833ZM39.1724 6.53947C38.474 6.79343 37.8391 7.23786 37.3312 7.74578C36.8233 8.2537 36.3789 8.82511 36.0614 9.5235C35.744 10.2219 35.617 10.9838 35.617 11.8091C35.617 12.6345 35.744 13.4599 36.0614 14.1583C36.3789 14.8567 36.7598 15.4916 37.3312 15.9995C37.8391 16.5074 38.474 16.9518 39.1724 17.2058C39.8708 17.5232 40.6327 17.6502 41.3946 17.6502C42.2199 17.6502 42.9183 17.5232 43.6802 17.2058C44.3786 16.8883 45.0135 16.5074 45.5849 15.9995C46.0928 15.4916 46.5373 14.8567 46.8547 14.1583C47.1722 13.4599 47.2991 12.6345 47.2991 11.8091C47.2991 10.9838 47.1722 10.2219 46.8547 9.5235C46.5373 8.82511 46.0928 8.2537 45.5849 7.74578C45.0135 7.23786 44.4421 6.85692 43.6802 6.53947C42.9818 6.22202 42.2199 6.09504 41.3946 6.09504C40.5692 6.09504 39.8708 6.22202 39.1724 6.53947ZM34.0297 15.1106C33.5218 15.6185 32.9504 15.9995 32.4425 16.2534C31.9346 16.5074 31.3631 16.5709 30.7917 16.5709C29.7124 16.5709 28.887 16.1265 28.3156 15.3011C27.7442 14.4757 27.4903 13.2694 27.4903 11.6187C27.4903 10.0949 27.7442 9.01558 28.2521 8.19021C28.7601 7.42833 29.5219 7.04739 30.5378 7.04739C30.9187 7.04739 31.2997 7.11088 31.5536 7.23786C31.8076 7.36484 32.0615 7.6188 32.379 7.93625C32.6329 8.31719 32.8869 8.50766 33.0139 8.63464C33.2044 8.76162 33.3948 8.76162 33.6488 8.76162C33.9662 8.76162 34.2202 8.69813 34.4107 8.50766C34.6011 8.38068 34.6646 8.12672 34.6646 7.87276C34.6646 7.6188 34.6011 7.36484 34.4107 7.11088C34.2202 6.85692 33.9662 6.66645 33.6488 6.53947C33.3313 6.349 32.9504 6.22202 32.506 6.15853C32.0615 6.09504 31.5536 6.03155 30.9822 6.03155C30.0933 6.03155 29.3315 6.15853 28.5696 6.41249C27.8712 6.66645 27.2363 7.04739 26.7284 7.6188C26.2205 8.19021 25.8395 8.76162 25.5221 9.46001C25.2681 10.1584 25.0776 10.9838 25.0776 11.8726C25.0776 12.698 25.2046 13.5234 25.4586 14.2218C25.7125 14.9202 26.03 15.4916 26.4744 15.9995C26.9188 16.5074 27.4903 16.8883 28.0617 17.1423C28.6966 17.3963 29.395 17.5232 30.0933 17.5232C31.0457 17.5232 31.8711 17.3328 32.6964 17.0153C33.5218 16.6979 34.1567 16.19 34.6646 15.5551L34.0297 15.1106Z" fill="black"/>
</g>
</svg>
