<svg width="20" height="20" viewBox="0 0 20 20" fill="none" xmlns="http://www.w3.org/2000/svg">
<g id="file">
<path id="vector" d="M16.6138 7.23342C16.6047 7.20675 16.5972 7.18092 16.5863 7.15508C16.5468 7.06464 16.4915 6.98196 16.423 6.91092L11.423 1.91091C11.352 1.8424 11.2693 1.78709 11.1788 1.74758C11.1538 1.73591 11.1272 1.72925 11.1005 1.72008C11.0308 1.69635 10.9582 1.68206 10.8847 1.67758C10.8663 1.67591 10.8505 1.66675 10.833 1.66675H4.99967C4.08051 1.66675 3.33301 2.41425 3.33301 3.33341V16.6667C3.33301 17.5859 4.08051 18.3334 4.99967 18.3334H14.9997C15.9188 18.3334 16.6663 17.5859 16.6663 16.6667V7.50008C16.6663 7.48258 16.6572 7.46675 16.6555 7.44841C16.6512 7.37522 16.6372 7.30291 16.6138 7.23342ZM13.8213 6.66675H11.6663V4.51175L13.8213 6.66675ZM4.99967 16.6667V3.33341H9.99967V7.50008C9.99967 7.7211 10.0875 7.93306 10.2438 8.08934C10.4 8.24562 10.612 8.33342 10.833 8.33342H14.9997L15.0013 16.6667H4.99967Z" fill="currentColor"/>
</g>
</svg>
