<svg width="310" height="632" viewBox="0 0 310 632" fill="none" xmlns="http://www.w3.org/2000/svg">
<line x1="435.5" y1="-254.134" x2="-479.56" y2="274.176" stroke="#F0F0F0" stroke-width="2"/>
<line x1="441.411" y1="-243.895" x2="-473.649" y2="284.415" stroke="#F0F0F0" stroke-width="2"/>
<line x1="447.323" y1="-233.656" x2="-467.737" y2="294.654" stroke="#F0F0F0" stroke-width="2"/>
<line x1="453.234" y1="-223.417" x2="-461.826" y2="304.893" stroke="#F0F0F0" stroke-width="2"/>
<line x1="459.146" y1="-213.178" x2="-455.915" y2="315.132" stroke="#F0F0F0" stroke-width="2"/>
<line x1="465.058" y1="-202.939" x2="-450.003" y2="325.371" stroke="#F0F0F0" stroke-width="2"/>
<line x1="470.969" y1="-192.7" x2="-444.091" y2="335.61" stroke="#F0F0F0" stroke-width="2"/>
<line x1="476.88" y1="-182.461" x2="-438.18" y2="345.849" stroke="#F0F0F0" stroke-width="2"/>
<line x1="482.792" y1="-172.222" x2="-432.268" y2="356.088" stroke="#F0F0F0" stroke-width="2"/>
<line x1="488.703" y1="-161.983" x2="-426.357" y2="366.327" stroke="#F0F0F0" stroke-width="2"/>
<line x1="494.615" y1="-151.744" x2="-420.445" y2="376.566" stroke="#F0F0F0" stroke-width="2"/>
<line x1="500.526" y1="-141.505" x2="-414.534" y2="386.805" stroke="#F0F0F0" stroke-width="2"/>
<line x1="506.437" y1="-131.266" x2="-408.623" y2="397.044" stroke="#F0F0F0" stroke-width="2"/>
<line x1="512.35" y1="-121.027" x2="-402.711" y2="407.283" stroke="#F0F0F0" stroke-width="2"/>
<line x1="518.261" y1="-110.788" x2="-396.799" y2="417.522" stroke="#F0F0F0" stroke-width="2"/>
<line x1="524.172" y1="-100.549" x2="-390.888" y2="427.761" stroke="#F0F0F0" stroke-width="2"/>
<line x1="530.084" y1="-90.3102" x2="-384.976" y2="438" stroke="#F0F0F0" stroke-width="2"/>
<line x1="535.995" y1="-80.0712" x2="-379.065" y2="448.239" stroke="#F0F0F0" stroke-width="2"/>
<line x1="541.906" y1="-69.8322" x2="-373.154" y2="458.478" stroke="#F0F0F0" stroke-width="2"/>
<line x1="547.818" y1="-59.5932" x2="-367.242" y2="468.717" stroke="#F0F0F0" stroke-width="2"/>
<line x1="553.729" y1="-49.3542" x2="-361.331" y2="478.956" stroke="#F0F0F0" stroke-width="2"/>
<line x1="559.642" y1="-39.1152" x2="-355.419" y2="489.195" stroke="#F0F0F0" stroke-width="2"/>
<line x1="565.553" y1="-28.8762" x2="-349.507" y2="499.434" stroke="#F0F0F0" stroke-width="2"/>
<line x1="571.464" y1="-18.6371" x2="-343.596" y2="509.673" stroke="#F0F0F0" stroke-width="2"/>
<line x1="577.376" y1="-8.39813" x2="-337.684" y2="519.912" stroke="#F0F0F0" stroke-width="2"/>
<line x1="583.287" y1="1.84088" x2="-331.773" y2="530.151" stroke="#F0F0F0" stroke-width="2"/>
<line x1="589.198" y1="12.0796" x2="-325.862" y2="540.39" stroke="#F0F0F0" stroke-width="2"/>
<line x1="595.11" y1="22.3187" x2="-319.95" y2="550.629" stroke="#F0F0F0" stroke-width="2"/>
<line x1="601.021" y1="32.5577" x2="-314.039" y2="560.868" stroke="#F0F0F0" stroke-width="2"/>
<line x1="606.933" y1="42.7967" x2="-308.128" y2="571.107" stroke="#F0F0F0" stroke-width="2"/>
<line x1="612.845" y1="53.0357" x2="-302.215" y2="581.346" stroke="#F0F0F0" stroke-width="2"/>
<line x1="618.756" y1="63.2747" x2="-296.304" y2="591.585" stroke="#F0F0F0" stroke-width="2"/>
<line x1="624.667" y1="73.5137" x2="-290.393" y2="601.824" stroke="#F0F0F0" stroke-width="2"/>
<line x1="630.579" y1="83.7527" x2="-284.481" y2="612.063" stroke="#F0F0F0" stroke-width="2"/>
<line x1="636.49" y1="93.9918" x2="-278.57" y2="622.302" stroke="#F0F0F0" stroke-width="2"/>
<line x1="642.402" y1="104.231" x2="-272.658" y2="632.541" stroke="#F0F0F0" stroke-width="2"/>
<line x1="648.313" y1="114.47" x2="-266.747" y2="642.78" stroke="#F0F0F0" stroke-width="2"/>
<line x1="654.225" y1="124.709" x2="-260.836" y2="653.019" stroke="#F0F0F0" stroke-width="2"/>
<line x1="660.137" y1="134.948" x2="-254.923" y2="663.258" stroke="#F0F0F0" stroke-width="2"/>
<line x1="666.048" y1="145.187" x2="-249.012" y2="673.497" stroke="#F0F0F0" stroke-width="2"/>
<line x1="671.959" y1="155.426" x2="-243.101" y2="683.736" stroke="#F0F0F0" stroke-width="2"/>
<line x1="677.871" y1="165.665" x2="-237.189" y2="693.975" stroke="#F0F0F0" stroke-width="2"/>
<line x1="683.782" y1="175.904" x2="-231.278" y2="704.214" stroke="#F0F0F0" stroke-width="2"/>
<line x1="689.693" y1="186.143" x2="-225.367" y2="714.453" stroke="#F0F0F0" stroke-width="2"/>
<line x1="695.605" y1="196.382" x2="-219.455" y2="724.692" stroke="#F0F0F0" stroke-width="2"/>
<line x1="701.517" y1="206.62" x2="-213.544" y2="734.931" stroke="#F0F0F0" stroke-width="2"/>
<line x1="707.428" y1="216.859" x2="-207.632" y2="745.17" stroke="#F0F0F0" stroke-width="2"/>
<line x1="713.34" y1="227.098" x2="-201.72" y2="755.409" stroke="#F0F0F0" stroke-width="2"/>
<line x1="719.251" y1="237.337" x2="-195.809" y2="765.648" stroke="#F0F0F0" stroke-width="2"/>
<line x1="725.162" y1="247.576" x2="-189.898" y2="775.887" stroke="#F0F0F0" stroke-width="2"/>
<line x1="731.074" y1="257.815" x2="-183.986" y2="786.125" stroke="#F0F0F0" stroke-width="2"/>
<line x1="736.985" y1="268.054" x2="-178.075" y2="796.364" stroke="#F0F0F0" stroke-width="2"/>
<line x1="742.897" y1="278.293" x2="-172.163" y2="806.603" stroke="#F0F0F0" stroke-width="2"/>
<line x1="748.809" y1="288.532" x2="-166.252" y2="816.842" stroke="#F0F0F0" stroke-width="2"/>
<line x1="754.72" y1="298.771" x2="-160.34" y2="827.081" stroke="#F0F0F0" stroke-width="2"/>
<line x1="760.632" y1="309.01" x2="-154.428" y2="837.32" stroke="#F0F0F0" stroke-width="2"/>
<line x1="766.543" y1="319.249" x2="-148.517" y2="847.559" stroke="#F0F0F0" stroke-width="2"/>
<line x1="772.454" y1="329.488" x2="-142.606" y2="857.798" stroke="#F0F0F0" stroke-width="2"/>
<line x1="778.366" y1="339.727" x2="-136.694" y2="868.037" stroke="#F0F0F0" stroke-width="2"/>
<line x1="784.277" y1="349.966" x2="-130.783" y2="878.276" stroke="#F0F0F0" stroke-width="2"/>
<line x1="790.188" y1="360.205" x2="-124.872" y2="888.515" stroke="#F0F0F0" stroke-width="2"/>
</svg>
