<?xml version="1.0" standalone="no"?>
<!DOCTYPE svg PUBLIC "-//W3C//DTD SVG 20010904//EN"
 "http://www.w3.org/TR/2001/REC-SVG-20010904/DTD/svg10.dtd">
<svg version="1.0" xmlns="http://www.w3.org/2000/svg"
 width="260.000000pt" height="260.000000pt" viewBox="0 0 260.000000 260.000000"
 preserveAspectRatio="xMidYMid meet">
<metadata>
Created by potrace 1.14, written by Peter Selinger 2001-2017
</metadata>
<g transform="translate(0.000000,260.000000) scale(0.100000,-0.100000)"
fill="#000000" stroke="none">
<path d="M605 2594 c-11 -2 -45 -9 -75 -15 -30 -6 -91 -28 -135 -49 -150 -73
-252 -175 -324 -325 -68 -140 -66 -114 -66 -905 0 -798 -3 -763 71 -918 77
-161 225 -287 409 -350 l80 -27 725 0 c802 0 775 -2 915 66 146 69 250 172
321 314 58 117 66 159 71 388 l5 207 -230 0 -230 0 -4 -178 -3 -179 -30 -49
c-19 -30 -49 -60 -79 -79 l-49 -30 -406 -5 -406 -5 -130 -97 c-71 -54 -133
-98 -136 -98 -5 0 12 121 26 177 5 21 3 21 -148 25 -135 3 -157 6 -195 26 -49
26 -97 88 -112 143 -7 25 -10 266 -8 692 l3 654 30 49 c19 30 49 60 79 79 l49
30 654 3 c424 2 667 -1 692 -8 57 -15 102 -50 136 -104 l30 -49 3 -179 4 -178
230 0 230 0 -5 208 c-5 232 -12 268 -77 400 -76 152 -227 279 -405 340 l-80
27 -705 2 c-388 0 -714 -1 -725 -3z"/>
<path d="M1287 1870 c-130 -33 -210 -134 -192 -241 4 -22 17 -52 30 -67 l23
-28 -44 -42 c-64 -63 -81 -140 -45 -217 33 -71 102 -118 266 -180 131 -49 172
-91 162 -167 -10 -75 -67 -112 -172 -112 -64 1 -89 7 -186 48 -12 5 -19 -3
-29 -33 -7 -21 -10 -44 -6 -49 3 -6 32 -21 64 -33 84 -33 237 -33 307 -1 95
43 138 103 139 192 0 42 -6 66 -26 102 l-26 47 24 22 c36 34 74 117 74 163 -1
90 -62 166 -180 219 -36 16 -100 45 -143 65 -87 40 -117 69 -117 116 0 72 60
110 170 110 56 0 87 -6 124 -22 27 -12 51 -21 52 -19 2 2 10 20 19 40 l16 38
-56 25 c-63 29 -182 40 -248 24z m-29 -404 c26 -13 80 -35 120 -50 124 -44
152 -75 152 -165 0 -38 -6 -56 -22 -75 l-23 -26 -123 50 c-146 58 -188 82
-207 120 -19 37 -19 63 1 103 16 31 43 67 51 67 2 0 25 -11 51 -24z"/>
</g>
</svg>
