<svg width="20" height="20" viewBox="0 0 20 20" fill="none" xmlns="http://www.w3.org/2000/svg">
<g id="logo-symbol">
<g id="Group 2">
<path id="Vector" d="M10.5243 5.8877C9.31803 5.8877 8.36568 6.5226 8.36568 7.53844C8.36568 7.91938 8.55615 8.30032 8.81011 8.49079C8.17521 8.87173 7.98474 9.37965 7.98474 9.82408C7.98474 10.8399 8.81011 11.2209 9.95293 11.6653C11.0323 12.0462 11.3497 12.3002 11.3497 12.8716C11.3497 13.5065 10.7783 13.8239 10.0799 13.8239C9.5085 13.8239 9.00058 13.6335 8.55615 13.3795L8.30219 14.0144C8.74662 14.3319 9.38152 14.5223 10.0799 14.5223C11.1592 14.5223 12.2386 14.0144 12.2386 12.8081C12.2386 12.3637 11.9846 11.9827 11.7941 11.7923C12.2386 11.4113 12.556 11.0304 12.556 10.3955C12.556 9.37965 11.7307 8.93522 10.7148 8.55428C9.82595 8.17334 9.25454 7.98287 9.25454 7.41146C9.25454 6.90354 9.76246 6.58609 10.4609 6.58609C10.4609 6.58609 10.4609 6.58609 10.5243 6.58609C10.9688 6.58609 11.4767 6.71307 11.8576 6.96703L12.1116 6.33213C11.6037 6.01468 11.0958 5.8877 10.5243 5.8877ZM11.2862 11.3478C11.0323 11.1574 10.5878 11.0304 9.95293 10.7764C9.06407 10.459 8.74662 10.078 8.74662 9.6971C8.74662 9.37965 8.93709 9.0622 9.25454 8.80824C9.63548 8.99871 10.2069 9.25267 10.6513 9.37965C11.4132 9.63361 11.6672 10.0145 11.6672 10.459C11.7307 10.7764 11.6037 11.0939 11.2862 11.3478Z" fill="white"/>
<path id="Vector_2" d="M19.0947 7.85692V5.76175C19.0947 3.15866 16.936 1 14.3329 1H5.76175C3.15866 1 1 3.15866 1 5.76175V14.3964C1 16.9995 3.15866 19.1581 5.76175 19.1581H14.3329C16.936 19.1581 19.0947 16.9995 19.0947 14.3964V12.3012H15.8567V14.3964C15.8567 15.2218 15.1583 15.9202 14.3329 15.9202H9.19021L7.22202 17.3804L7.47598 15.9202H5.76175C4.93638 15.9202 4.23799 15.2218 4.23799 14.3964V5.76175C4.23799 4.93638 4.93638 4.23799 5.76175 4.23799H14.3329C15.1583 4.23799 15.8567 4.93638 15.8567 5.76175V7.85692H19.0947Z" fill="#A90000"/>
</g>
</g>
</svg>
